<?xml version="1.0" standalone="no"?>
<!DOCTYPE svg PUBLIC "-//W3C//DTD SVG 20010904//EN"
 "http://www.w3.org/TR/2001/REC-SVG-20010904/DTD/svg10.dtd">
<svg version="1.0" xmlns="http://www.w3.org/2000/svg"
 width="1024.000000pt" height="1024.000000pt" viewBox="0 0 1024.000000 1024.000000"
 preserveAspectRatio="xMidYMid meet">

<g transform="translate(0.000000,1024.000000) scale(0.100000,-0.100000)"
fill="#000000" stroke="none">
<path d="M8970 8664 c0 -3 8 -18 18 -32 24 -34 55 -113 47 -120 -3 -3 -5 -1
-5 5 0 6 -9 13 -19 16 -23 6 -22 3 32 -115 40 -86 56 -131 95 -263 l27 -90 1
-1668 c1 -947 -2 -1670 -7 -1673 -5 -3 -4 -14 1 -25 10 -18 6 -23 -13 -20 -5
1 -6 -3 -2 -9 3 -6 11 -8 16 -5 5 4 9 -1 9 -10 0 -10 -5 -13 -12 -9 -10 6 -10
4 -2 -7 17 -22 7 -149 -14 -173 -12 -15 -12 -17 -2 -9 14 11 16 2 16 -75 0
-48 -1 -79 -4 -69 -5 25 -32 3 -32 -26 0 -16 -3 -18 -11 -10 -9 9 -5 20 15 43
29 36 31 47 11 74 -17 23 -38 11 -30 -17 5 -17 4 -19 -4 -7 -6 9 -11 10 -11 3
0 -7 -9 -9 -22 -5 -20 5 -21 3 -11 -10 10 -11 10 -17 1 -26 -12 -12 -4 -16 32
-13 8 0 2 -6 -15 -13 -25 -12 -27 -15 -13 -21 10 -4 15 -12 12 -17 -4 -6 -10
-5 -15 3 -4 8 -12 14 -16 14 -4 0 -17 5 -27 12 -23 13 -15 42 13 50 13 3 18
12 16 26 -4 36 -16 57 -31 57 -20 0 -17 -17 4 -29 9 -6 12 -11 6 -11 -6 0 -14
3 -18 7 -10 10 -36 13 -36 3 0 -4 11 -11 25 -14 14 -4 23 -11 20 -15 -3 -5
-13 -7 -23 -4 -16 4 -18 -3 -18 -54 0 -32 5 -61 11 -65 6 -5 6 -8 0 -8 -7 0
-10 -284 -10 -833 0 -457 -3 -867 -7 -909 -25 -269 -221 -583 -463 -743 -141
-93 -271 -141 -405 -150 -47 -3 -674 -7 -1393 -9 -1044 -2 -1311 -5 -1317 -16
-6 -10 -9 -9 -12 1 -4 11 -64 14 -322 16 -230 2 -315 -1 -310 -9 5 -7 2 -8 -7
-3 -20 13 -389 12 -381 0 3 -5 -1 -5 -9 1 -22 18 -489 15 -489 -3 0 -7 -5 -13
-11 -13 -5 0 -7 5 -3 12 5 8 0 9 -14 6 -12 -4 -20 -2 -17 2 3 5 -15 8 -39 7
-24 -1 -42 -5 -39 -9 2 -5 -6 -4 -19 0 -28 10 -870 8 -886 -2 -7 -4 -12 -4
-12 1 0 4 -32 7 -70 6 -55 -2 -75 -7 -92 -23 -12 -11 -24 -17 -27 -14 -3 4 0
9 7 11 17 6 15 23 -2 23 -8 0 -17 -8 -19 -17 -4 -15 -5 -16 -6 -2 -1 18 -38
33 -46 19 -3 -5 3 -10 14 -12 16 -2 17 -5 5 -16 -11 -10 -16 -7 -27 14 -9 17
-17 23 -21 15 -4 -6 -5 -11 -1 -11 3 0 0 -10 -6 -22 -11 -21 -11 -22 5 -9 14
12 16 12 10 -4 -5 -13 -4 -16 5 -10 10 6 11 3 3 -11 -5 -11 -12 -26 -16 -34
-3 -8 -4 -3 -1 12 5 27 -1 33 -33 29 -6 -1 -20 3 -30 9 -15 10 -14 11 5 7 26
-6 36 4 27 27 -5 13 -9 14 -20 5 -11 -9 -14 -8 -14 4 0 13 -5 14 -22 8 -13 -5
-23 -13 -23 -19 0 -6 -4 -14 -9 -19 -5 -4 -7 3 -4 18 4 22 1 25 -14 21 -10 -2
-18 -10 -18 -17 0 -7 -7 -18 -15 -25 -10 -9 -15 -9 -15 -1 0 6 5 11 10 11 6 0
10 9 10 19 0 17 -8 19 -71 20 -83 1 -93 -3 -79 -30 9 -15 5 -27 -15 -56 -25
-37 -25 -37 -25 -10 0 17 5 27 15 27 18 0 20 37 3 43 -10 3 -10 7 1 20 12 15
11 17 -3 17 -10 0 -14 -4 -11 -10 3 -5 -1 -10 -10 -10 -11 0 -15 -5 -11 -15 3
-8 1 -15 -4 -15 -6 0 -10 5 -10 11 0 7 -12 8 -33 4 -24 -5 -28 -4 -17 4 11 8
12 11 2 11 -7 0 -10 5 -6 11 4 7 9 8 13 1 8 -12 51 -10 52 3 0 5 -9 12 -20 17
-12 4 -21 4 -21 0 0 -4 -9 -8 -21 -9 -18 -2 -19 0 -7 14 12 15 11 15 -9 4 -13
-6 -23 -18 -23 -26 0 -10 -6 -12 -17 -8 -15 6 -16 4 -6 -9 7 -8 12 -17 10 -19
-1 -3 6 4 16 14 20 22 22 16 5 -14 -11 -17 -10 -23 0 -26 6 -3 10 -9 6 -14 -3
-5 -12 -2 -20 6 -21 21 -55 20 -47 -1 5 -12 7 -13 14 -2 6 9 8 7 7 -8 -2 -18
-11 -22 -48 -15 -2 1 1 6 7 12 6 6 9 18 6 25 -3 8 0 14 6 14 6 0 11 6 11 14 0
8 11 28 25 44 18 22 22 33 14 38 -7 4 -10 3 -7 -2 3 -5 0 -15 -8 -22 -12 -11
-13 -9 -11 9 1 12 -3 24 -10 26 -8 3 -10 -5 -7 -23 5 -25 3 -26 -13 -13 -17
13 -17 13 0 -7 17 -21 14 -54 -5 -54 -6 0 -8 7 -4 15 3 8 1 15 -4 15 -6 0 -8
-16 -4 -39 4 -23 2 -41 -4 -45 -7 -4 -9 1 -7 14 2 11 -1 23 -7 26 -7 4 -8 2
-4 -4 4 -7 2 -12 -3 -12 -6 0 -11 7 -11 15 0 8 -4 15 -8 15 -5 0 -9 -7 -9 -15
0 -8 4 -15 9 -15 4 0 8 -5 8 -11 0 -5 -5 -7 -12 -3 -7 4 -8 3 -4 -5 4 -6 12
-9 17 -6 5 4 9 1 9 -4 0 -6 -5 -11 -11 -11 -6 0 -4 -7 5 -15 19 -19 25 -19 48
2 16 14 18 14 18 0 0 -8 -6 -18 -12 -21 -7 -3 -2 -3 11 0 19 5 23 3 18 -10 -4
-10 -1 -16 9 -16 8 0 13 4 10 9 -10 15 5 43 20 37 7 -3 15 0 18 7 3 8 5 8 5
-1 1 -8 -8 -16 -19 -19 -20 -5 -28 -23 -10 -23 6 0 10 -8 9 -17 0 -11 -3 -13
-6 -5 -2 6 -9 9 -15 6 -12 -8 -138 45 -138 57 0 5 -3 8 -7 7 -17 -5 -113 53
-107 64 4 6 3 8 -4 4 -14 -8 -168 107 -175 131 -1 4 -5 7 -8 6 -4 -1 -24 16
-45 39 -22 22 -51 53 -66 68 -15 15 -24 31 -21 34 4 3 1 6 -6 6 -7 0 -11 6 -8
13 3 8 1 20 -5 28 -8 11 -9 9 -4 -6 12 -41 -49 45 -97 137 -27 51 -46 85 -43
76 2 -9 -1 -19 -8 -21 -11 -4 -33 17 -58 56 -4 6 -11 8 -15 3 -4 -5 -2 -11 5
-13 6 -3 12 -9 12 -14 0 -6 9 -19 20 -31 17 -19 25 -45 21 -70 0 -5 3 -8 9 -8
5 0 10 -10 10 -22 -1 -22 -1 -22 -23 5 -13 15 -29 44 -36 64 -8 21 -22 51 -33
68 -17 27 -19 27 -12 5 13 -48 93 -197 155 -290 81 -122 264 -306 379 -383
155 -102 332 -177 502 -214 79 -17 237 -18 2963 -18 2725 0 2884 1 2950 18
111 28 225 66 295 99 261 122 520 383 650 653 73 152 134 362 155 530 13 105
8 5415 -5 5503 -33 222 -111 419 -233 595 -38 55 -47 64 -47 51z m90 -179 c0
-8 -2 -15 -4 -15 -2 0 -6 7 -10 15 -3 8 -1 15 4 15 6 0 10 -7 10 -15z m73
-4128 c-4 -6 -10 -2 -14 9 -12 31 -9 40 6 20 8 -10 11 -24 8 -29z m22 -77 c8
-12 -23 -45 -33 -36 -3 4 0 11 7 15 7 5 10 14 7 20 -4 6 -3 11 3 11 5 0 13 -5
16 -10z m-130 -40 c3 -5 2 -10 -4 -10 -5 0 -13 5 -16 10 -3 6 -2 10 4 10 5 0
13 -4 16 -10z m62 -21 c1 -22 1 -23 -4 -1 -2 12 -9 20 -14 17 -5 -4 -9 -1 -9
5 0 23 25 3 27 -21z m-41 -16 c-11 -11 -17 4 -9 23 7 18 8 18 11 1 2 -10 1
-21 -2 -24z m71 5 c-3 -8 -6 -5 -6 6 -1 11 2 17 5 13 3 -3 4 -12 1 -19z m-107
2 c0 -5 -2 -10 -4 -10 -3 0 -8 5 -11 10 -3 6 -1 10 4 10 6 0 11 -4 11 -10z
m148 -83 l-2 -74 -30 4 c-16 1 -32 6 -35 9 -3 3 3 5 14 4 38 -4 45 0 45 26 0
24 -3 26 -32 20 -31 -6 -33 -4 -33 24 0 17 3 30 8 30 4 0 7 -12 7 -26 0 -21 3
-24 13 -15 8 6 16 8 19 5 3 -2 8 2 12 11 3 9 2 13 -4 10 -14 -9 -12 13 3 30 6
8 13 14 14 15 1 0 1 -33 1 -73z m-43 53 c3 -6 -1 -7 -9 -4 -18 7 -21 14 -7 14
6 0 13 -4 16 -10z m-48 -40 c-5 -43 -18 -53 -50 -41 -30 12 -33 16 -15 27 7 4
8 3 4 -4 -5 -8 2 -12 21 -11 17 1 21 3 10 6 -16 4 -16 7 5 29 13 13 24 24 25
24 2 0 1 -14 0 -30z m-47 -60 c12 -8 12 -10 -2 -15 -9 -4 -14 -13 -12 -20 3
-7 2 -15 -3 -18 -4 -3 -9 10 -9 29 -1 36 2 39 26 24z m57 -19 c-1 -17 -5 -27
-9 -23 -7 7 0 52 8 52 2 0 2 -13 1 -29z m40 23 c-3 -3 -12 -4 -19 -1 -8 3 -5
6 6 6 11 1 17 -2 13 -5z m-64 -45 c3 -12 1 -19 -5 -17 -13 5 -20 38 -8 38 4 0
10 -9 13 -21z m18 -38 c-6 -10 -7 -22 -3 -26 4 -5 1 -5 -5 -1 -23 13 -15 37
15 45 1 1 -2 -7 -7 -18z m79 9 c8 -5 11 -12 7 -17 -5 -4 -12 -1 -18 7 -8 13
-13 11 -29 -9 -11 -13 -20 -19 -20 -13 0 12 28 42 38 42 4 0 14 -4 22 -10z
m-33 -62 c-3 -8 -6 -5 -6 6 -1 11 2 17 5 13 3 -3 4 -12 1 -19z m43 3 c0 -29
-15 -33 -16 -5 -1 13 2 24 7 24 5 0 9 -9 9 -19z m-20 -62 c0 -7 -6 -4 -15 7
-19 25 -19 40 0 20 8 -8 15 -20 15 -27z m-120 -23 c0 -3 -4 -8 -10 -11 -5 -3
-10 -1 -10 4 0 6 5 11 10 11 6 0 10 -2 10 -4z m138 -20 c-2 -21 -5 -23 -21
-14 -15 8 -17 12 -7 18 10 6 8 9 -6 13 -14 3 -11 5 8 6 24 1 27 -3 26 -23z
m-8 -41 c0 -2 -9 -3 -19 -2 -11 0 -18 5 -15 9 4 6 34 0 34 -7z m-143 -27 c-3
-8 -6 -5 -6 6 -1 11 2 17 5 13 3 -3 4 -12 1 -19z m123 -8 c0 -5 -5 -10 -11
-10 -5 0 -7 5 -4 10 3 6 8 10 11 10 2 0 4 -4 4 -10z m10 -29 c0 -14 -26 -20
-41 -9 -11 8 -11 9 3 4 10 -3 20 -1 23 4 8 12 15 13 15 1z m-30 -41 c0 -5 -2
-10 -4 -10 -3 0 -8 5 -11 10 -3 6 -1 10 4 10 6 0 11 -4 11 -10z m-93 -52 c-3
-8 -6 -5 -6 6 -1 11 2 17 5 13 3 -3 4 -12 1 -19z m137 -3 c4 -13 2 -14 -14 -5
-23 13 -26 20 -6 20 8 0 16 -7 20 -15z m-120 -233 c3 -5 -1 -9 -9 -9 -8 0 -12
4 -9 9 3 4 7 8 9 8 2 0 6 -4 9 -8z m117 -11 c-8 -5 -10 -14 -6 -22 6 -11 5
-11 -5 -2 -11 10 -11 15 0 28 7 8 15 13 19 10 3 -3 -1 -10 -8 -14z m12 -56
c-3 -9 -8 -14 -10 -11 -3 3 -2 9 2 15 9 16 15 13 8 -4z m-66 -51 c-3 -3 -12
-4 -19 -1 -8 3 -5 6 6 6 11 1 17 -2 13 -5z m-29 -29 c-3 -3 -9 2 -12 12 -6 14
-5 15 5 6 7 -7 10 -15 7 -18z m-13 -15 c3 -6 -1 -7 -9 -4 -18 7 -21 14 -7 14
6 0 13 -4 16 -10z m95 0 c0 -5 -5 -10 -11 -10 -5 0 -7 5 -4 10 3 6 8 10 11 10
2 0 4 -4 4 -10z m-31 -24 c-2 -2 -20 -6 -39 -9 l-35 -6 35 18 c20 11 37 15 39
10 1 -6 1 -12 0 -13z m-38 -39 c-10 -9 -11 -8 -5 6 3 10 9 15 12 12 3 -3 0
-11 -7 -18z m75 -93 c1 -14 0 -23 -3 -20 -4 3 -8 18 -9 32 -2 14 0 24 3 20 3
-3 7 -17 9 -32z m-134 -8 c3 -14 0 -27 -7 -29 -7 -3 -10 5 -7 24 5 35 8 36 14
5z m48 -6 c0 -5 -5 -10 -11 -10 -5 0 -7 5 -4 10 3 6 8 10 11 10 2 0 4 -4 4
-10z m60 -11 c0 -6 -4 -7 -10 -4 -5 3 -10 11 -10 16 0 6 5 7 10 4 6 -3 10 -11
10 -16z m-20 -54 c-7 -9 -15 -13 -19 -10 -3 3 1 10 9 15 21 14 24 12 10 -5z
m-43 -87 c-3 -7 -5 -2 -5 12 0 14 2 19 5 13 2 -7 2 -19 0 -25z m68 12 c-3 -5
-12 -10 -18 -10 -7 0 -6 4 3 10 19 12 23 12 15 0z m-90 -48 c-7 -8 -35 7 -35
18 0 6 7 6 20 -2 10 -7 17 -14 15 -16z m85 18 c0 -5 -8 -10 -17 -10 -15 0 -16
2 -3 10 19 12 20 12 20 0z m25 -14 c0 -15 -4 -21 -9 -16 -5 5 -6 16 -3 24 9
22 12 20 12 -8z m1 -71 c0 -19 -3 -22 -13 -13 -10 8 -10 14 -2 24 15 18 15 18
15 -11z m-9 -127 c-6 -4 -15 -2 -19 5 -11 17 1 28 16 14 10 -8 11 -14 3 -19z
m9 -23 c-1 -8 -6 -18 -11 -22 -4 -4 -5 -2 -1 5 4 7 2 12 -6 12 -9 0 -9 3 2 10
19 12 19 13 16 -5z m-136 -59 c0 -3 -4 -8 -10 -11 -5 -3 -10 -1 -10 4 0 6 5
11 10 11 6 0 10 -2 10 -4z m135 -16 c3 -6 -1 -7 -9 -4 -18 7 -21 14 -7 14 6 0
13 -4 16 -10z m2 -72 c-3 -7 -5 -2 -5 12 0 14 2 19 5 13 2 -7 2 -19 0 -25z
m-122 3 c3 -5 2 -12 -3 -15 -5 -3 -9 1 -9 9 0 17 3 19 12 6z m112 -73 c-3 -8
-6 -5 -6 6 -1 11 2 17 5 13 3 -3 4 -12 1 -19z m-46 -11 c-10 -9 -11 -8 -5 6 3
10 9 15 12 12 3 -3 0 -11 -7 -18z m-101 -71 c0 -3 -4 -8 -10 -11 -5 -3 -10 -1
-10 4 0 6 5 11 10 11 6 0 10 -2 10 -4z m124 -20 c-3 -9 -10 -13 -15 -10 -5 3
-3 11 4 19 15 16 19 13 11 -9z m-21 -77 c-3 -11 -9 -22 -14 -25 -5 -3 -5 5 0
18 4 13 6 30 4 38 -4 12 -3 12 5 1 5 -7 7 -22 5 -32z m-85 -214 c-12 -24 -26
-41 -32 -38 -6 4 -6 8 2 11 7 2 12 8 12 13 0 10 30 59 36 59 2 0 -6 -20 -18
-45z m-7688 -14 c5 -11 7 -22 2 -25 -4 -2 -12 7 -19 20 -13 28 2 33 17 5z
m7645 -72 c-9 -16 -18 -29 -21 -29 -2 0 2 13 10 29 9 16 12 32 8 36 -4 5 -1 5
5 1 10 -6 10 -14 -2 -37z m-95 -64 c-7 -9 -15 -13 -17 -11 -7 7 7 26 19 26 6
0 6 -6 -2 -15z m48 -15 c-14 -22 -24 -19 -15 5 4 8 11 15 17 15 6 0 6 -7 -2
-20z m-45 -17 c-7 -3 -13 -13 -13 -24 0 -26 -17 -24 -22 4 -3 18 0 22 21 23
14 1 20 -1 14 -3z m-13 -57 c0 -3 -4 -8 -10 -11 -5 -3 -10 -1 -10 4 0 6 5 11
10 11 6 0 10 -2 10 -4z m-20 -30 c0 -2 -7 -7 -16 -10 -8 -3 -12 -2 -9 4 6 10
25 14 25 6z m-90 -98 c0 -4 -7 -8 -15 -8 -8 0 -15 4 -15 8 0 5 7 9 15 9 8 0
15 -4 15 -9z m-36 -17 c3 -5 -1 -14 -8 -20 -12 -10 -14 -9 -11 6 2 10 4 19 4
21 2 5 10 2 15 -7z m-6464 -95 c0 -2 -7 -7 -16 -10 -8 -3 -12 -2 -9 4 6 10 25
14 25 6z m2725 -6 c3 -5 1 -10 -4 -10 -6 0 -11 5 -11 10 0 6 2 10 4 10 3 0 8
-4 11 -10z m-2228 -6 c-3 -3 -12 -4 -19 -1 -8 3 -5 6 6 6 11 1 17 -2 13 -5z
m146 -45 c-5 -18 -15 -34 -23 -37 -13 -3 -13 -2 -1 6 8 6 11 17 8 26 -4 9 -2
16 3 16 6 0 10 10 11 23 0 12 3 17 5 10 3 -6 1 -26 -3 -44z m83 39 c4 -7 3
-10 -1 -5 -5 4 -17 0 -27 -10 -22 -20 -24 -11 -2 11 19 19 21 19 30 4z m44 2
c0 -5 -2 -10 -4 -10 -3 0 -8 5 -11 10 -3 6 -1 10 4 10 6 0 11 -4 11 -10z m130
6 c0 -3 -4 -8 -10 -11 -5 -3 -10 -1 -10 4 0 6 5 11 10 11 6 0 10 -2 10 -4z
m100 -11 c0 -8 -2 -15 -4 -15 -2 0 -6 7 -10 15 -3 8 -1 15 4 15 6 0 10 -7 10
-15z m125 -5 c-2 -27 -15 -38 -15 -13 0 16 8 33 15 33 1 0 1 -9 0 -20z m2163
3 c-5 -6 -16 -9 -24 -6 -23 8 -16 21 10 19 18 -1 22 -4 14 -13z m242 2 c0 -8
-4 -15 -10 -15 -5 0 -7 7 -4 15 4 8 8 15 10 15 2 0 4 -7 4 -15z m56 -12 c-6
-6 -36 9 -36 18 0 5 9 4 20 -3 10 -7 18 -14 16 -15z m-2906 13 c0 -3 -4 -8
-10 -11 -5 -3 -10 -1 -10 4 0 6 5 11 10 11 6 0 10 -2 10 -4z m195 -18 c15 -3
12 -5 -11 -9 -27 -4 -30 -2 -26 14 3 10 8 14 11 9 3 -5 15 -12 26 -14z m52 0
c2 -18 0 -20 -7 -8 -12 18 -13 30 -2 30 4 0 9 -10 9 -22z m143 12 c0 -5 -5
-10 -11 -10 -5 0 -7 5 -4 10 3 6 8 10 11 10 2 0 4 -4 4 -10z m580 -5 c7 -9 8
-15 2 -15 -5 0 -12 7 -16 15 -3 8 -4 15 -2 15 2 0 9 -7 16 -15z m1420 11 c0
-3 -4 -8 -10 -11 -5 -3 -10 -1 -10 4 0 6 5 11 10 11 6 0 10 -2 10 -4z m-3135
-16 c3 -5 1 -10 -4 -10 -6 0 -11 5 -11 10 0 6 2 10 4 10 3 0 8 -4 11 -10z
m1512 -12 c-3 -8 -6 -5 -6 6 -1 11 2 17 5 13 3 -3 4 -12 1 -19z m1483 11 c0
-5 6 -7 13 -4 6 4 3 -1 -7 -9 -11 -9 -25 -16 -30 -16 -6 0 -5 4 3 9 7 5 10 14
7 20 -4 6 -2 11 3 11 6 0 11 -5 11 -11z m-2915 -9 c3 -5 0 -7 -8 -4 -8 3 -18
1 -22 -5 -3 -6 1 -11 10 -11 15 0 15 -1 1 -16 -12 -11 -15 -27 -11 -57 3 -23
2 -36 -1 -29 -3 6 -15 12 -27 13 -22 0 -22 0 1 9 20 9 21 12 11 32 -9 16 -9
23 0 26 6 2 8 8 5 13 -6 11 13 39 27 39 4 0 11 -4 14 -10z m342 -27 c-3 -10
-5 -4 -5 12 0 17 2 24 5 18 2 -7 2 -21 0 -30z m418 27 c3 -5 2 -10 -4 -10 -5
0 -13 5 -16 10 -3 6 -2 10 4 10 5 0 13 -4 16 -10z m549 -6 c3 -8 2 -12 -4 -9
-6 3 -10 10 -10 16 0 14 7 11 14 -7z m66 12 c0 -2 -7 -6 -15 -10 -8 -3 -15 -1
-15 4 0 6 7 10 15 10 8 0 15 -2 15 -4z m122 -18 c-7 -7 -12 -8 -12 -2 0 14 12
26 19 19 2 -3 -1 -11 -7 -17z m48 18 c0 -2 -7 -7 -16 -10 -8 -3 -12 -2 -9 4 6
10 25 14 25 6z m824 -11 c-4 -8 -8 -15 -10 -15 -2 0 -4 7 -4 15 0 8 4 15 10
15 5 0 7 -7 4 -15z m866 5 c0 -5 -7 -7 -15 -4 -8 4 -15 8 -15 10 0 2 7 4 15 4
8 0 15 -4 15 -10z m-2855 -10 c3 -6 -1 -7 -9 -4 -18 7 -21 14 -7 14 6 0 13 -4
16 -10z m325 6 c0 -3 -4 -8 -10 -11 -5 -3 -10 -1 -10 4 0 6 5 11 10 11 6 0 10
-2 10 -4z m2567 -2 c-3 -3 -12 -4 -19 -1 -8 3 -5 6 6 6 11 1 17 -2 13 -5z
m-3240 -29 c-15 -16 -19 -13 -11 9 3 9 10 13 15 10 5 -3 3 -11 -4 -19z m43 21
c0 -3 -4 -8 -10 -11 -5 -3 -10 -1 -10 4 0 6 5 11 10 11 6 0 10 -2 10 -4z m105
-46 c6 -43 6 -44 -12 -27 -16 15 -16 19 -3 27 8 5 10 10 3 10 -6 0 -9 9 -6 20
7 28 10 23 18 -30z m325 35 c0 -9 -9 -15 -22 -14 -17 1 -19 2 -5 6 9 2 17 9
17 14 0 5 2 9 5 9 3 0 5 -7 5 -15z m230 11 c0 -3 -4 -8 -10 -11 -5 -3 -10 -1
-10 4 0 6 5 11 10 11 6 0 10 -2 10 -4z m637 -18 c-3 -8 -6 -5 -6 6 -1 11 2 17
5 13 3 -3 4 -12 1 -19z m96 -3 c-7 -21 -13 -19 -13 6 0 11 4 18 10 14 5 -3 7
-12 3 -20z m1604 8 c-9 -2 -15 -9 -12 -14 3 -5 -1 -6 -10 -2 -13 5 -14 7 -3
14 7 5 20 8 28 8 11 -1 10 -3 -3 -6z m-3368 -24 c-16 -10 -23 -4 -14 10 3 6
11 8 17 5 6 -4 5 -9 -3 -15z m396 7 c7 3 16 1 20 -5 4 -7 -2 -10 -16 -8 -13 2
-24 9 -25 16 -1 6 0 7 2 2 3 -6 11 -8 19 -5z m330 -4 c-3 -3 -11 0 -18 7 -9
10 -8 11 6 5 10 -3 15 -9 12 -12z m272 -4 c-3 -8 -6 -5 -6 6 -1 11 2 17 5 13
3 -3 4 -12 1 -19z m738 4 c-3 -3 -11 0 -18 7 -9 10 -8 11 6 5 10 -3 15 -9 12
-12z m-1203 -14 c-7 -7 -12 -8 -12 -2 0 6 3 14 7 17 3 4 9 5 12 2 2 -3 -1 -11
-7 -17z m505 0 c-3 -8 -6 -5 -6 6 -1 11 2 17 5 13 3 -3 4 -12 1 -19z m-685
-10 c-7 -7 -12 -8 -12 -2 0 6 3 14 7 17 3 4 9 5 12 2 2 -3 -1 -11 -7 -17z
m318 18 c0 -3 -4 -8 -10 -11 -5 -3 -10 -1 -10 4 0 6 5 11 10 11 6 0 10 -2 10
-4z m-340 -27 c0 -6 -4 -7 -10 -4 -5 3 -10 11 -10 16 0 6 5 7 10 4 6 -3 10
-11 10 -16z m880 -6 c-1 -24 -2 -26 -11 -10 -5 9 -7 22 -4 27 10 17 15 11 15
-17z m-800 7 c0 -5 -4 -10 -10 -10 -5 0 -10 5 -10 10 0 6 5 10 10 10 6 0 10
-4 10 -10z m1317 -5 c0 -8 -6 -16 -14 -19 -11 -4 -11 -1 -3 14 13 24 17 25 17
5z m2588 5 c3 -6 -1 -7 -9 -4 -18 7 -21 14 -7 14 6 0 13 -4 16 -10z m-4099
-64 c-2 -6 -5 -2 -6 9 -1 20 -1 20 -15 1 -8 -11 -15 -15 -15 -9 0 7 4 14 9 17
5 3 7 16 4 29 -4 17 -1 16 11 -7 9 -16 15 -34 12 -40z m329 52 c17 2 18 1 4
-7 -18 -12 -61 -3 -53 10 3 5 11 6 17 2 7 -4 21 -6 32 -5z m80 -6 c-3 -3 -11
0 -18 7 -9 10 -8 11 6 5 10 -3 15 -9 12 -12z m165 14 c0 -3 -4 -8 -10 -11 -5
-3 -10 -1 -10 4 0 6 5 11 10 11 6 0 10 -2 10 -4z m2380 -6 c0 -5 -5 -10 -11
-10 -5 0 -7 5 -4 10 3 6 8 10 11 10 2 0 4 -4 4 -10z m-2869 -9 c-7 -5 -11 -13
-7 -19 3 -6 2 -13 -2 -16 -5 -3 -8 5 -7 17 3 28 3 27 18 27 9 0 8 -3 -2 -9z
m759 -2 c0 -5 -4 -7 -10 -4 -5 3 -10 1 -10 -6 0 -7 -3 -10 -6 -6 -8 7 4 27 17
27 5 0 9 -5 9 -11z m60 8 c0 -2 -12 -14 -27 -28 l-28 -24 24 28 c23 25 31 32
31 24z m35 -7 c-3 -5 -12 -10 -18 -10 -7 0 -6 4 3 10 19 12 23 12 15 0z m120
0 c-3 -5 -12 -10 -18 -10 -7 0 -6 4 3 10 19 12 23 12 15 0z m535 0 c0 -5 -4
-10 -10 -10 -5 0 -10 5 -10 10 0 6 5 10 10 10 6 0 10 -4 10 -10z m-1390 -15
c0 -8 -2 -15 -4 -15 -2 0 -6 7 -10 15 -3 8 -1 15 4 15 6 0 10 -7 10 -15z m383
0 c-3 -9 -8 -14 -10 -11 -3 3 -2 9 2 15 9 16 15 13 8 -4z m384 -4 c0 -11 -7
-17 -14 -14 -9 4 -9 8 0 19 16 17 16 17 14 -5z m46 4 c-3 -9 -8 -14 -10 -11
-3 3 -2 9 2 15 9 16 15 13 8 -4z m-903 1 c0 -3 -4 -8 -10 -11 -5 -3 -10 -1
-10 4 0 6 5 11 10 11 6 0 10 -2 10 -4z m-176 -14 c3 -5 -8 -6 -25 -4 -16 2
-29 6 -29 8 0 8 49 4 54 -4z m341 -2 c3 -5 1 -10 -4 -10 -6 0 -11 5 -11 10 0
6 2 10 4 10 3 0 8 -4 11 -10z m1624 7 c-2 -1 -13 -9 -24 -17 -19 -14 -19 -14
-6 3 7 9 18 17 24 17 6 0 8 -1 6 -3z m-1757 -14 c-6 -2 -10 -8 -8 -11 2 -4
-12 -8 -31 -10 -21 -1 -32 2 -28 8 4 6 11 8 16 5 5 -4 17 -1 26 4 10 6 23 10
28 10 6 0 4 -3 -3 -6z m1032 -8 c-4 -8 -11 -15 -16 -15 -6 0 -5 6 2 15 7 8 14
15 16 15 2 0 1 -7 -2 -15z m-924 -5 c0 -5 -8 -10 -17 -10 -15 0 -16 2 -3 10
19 12 20 12 20 0z m440 0 c0 -5 -2 -10 -4 -10 -3 0 -8 5 -11 10 -3 6 -1 10 4
10 6 0 11 -4 11 -10z m-497 -7 c-7 -2 -21 -2 -30 0 -10 3 -4 5 12 5 17 0 24
-2 18 -5z m700 0 c-7 -2 -19 -2 -25 0 -7 3 -2 5 12 5 14 0 19 -2 13 -5z m3774
1 c-3 -3 -12 -4 -19 -1 -8 3 -5 6 6 6 11 1 17 -2 13 -5z"/>
<path d="M6830 8648 c-192 -23 -375 -209 -410 -419 -8 -47 -11 -176 -8 -402 4
-326 5 -333 29 -398 37 -98 75 -157 140 -220 100 -96 212 -138 377 -140 59 -1
79 -4 62 -9 l-25 -8 26 -1 c15 -1 29 -8 33 -16 4 -11 15 -13 47 -9 32 5 40 3
34 -6 -5 -9 -4 -11 4 -6 6 4 9 12 6 17 -4 5 -2 9 4 9 6 0 8 7 5 15 -5 11 1 15
22 14 19 0 24 -3 14 -7 -22 -10 -22 -28 0 -28 10 0 18 3 18 6 -2 24 6 30 43
30 l42 0 -7 -42 c-10 -62 -65 -138 -145 -202 -80 -64 -100 -103 -81 -160 21
-65 87 -111 195 -137 53 -12 256 -18 249 -8 -2 4 9 9 25 12 31 7 103 40 162
76 34 20 37 20 50 4 12 -15 12 -16 -4 -10 -10 4 -16 3 -12 -2 7 -12 45 -10 45
3 0 5 -8 15 -17 22 -17 12 -16 14 6 38 13 14 27 23 32 21 4 -3 10 3 13 12 3
10 16 30 30 44 13 14 29 35 35 48 8 15 19 21 31 18 27 -7 63 39 41 53 -8 4 -5
13 9 25 20 18 21 18 37 -2 16 -19 17 -19 35 -1 21 21 24 36 4 19 -11 -9 -16
-9 -22 1 -4 7 -4 10 1 6 4 -4 14 0 22 10 10 12 16 14 19 5 9 -21 26 -15 19 7
-5 14 -2 20 10 20 8 0 18 7 21 15 4 9 14 14 23 13 11 -2 15 4 13 21 -1 17 2
22 13 17 10 -3 15 1 15 12 1 13 4 11 15 -8 l14 -25 1 25 c1 14 4 19 7 12 2 -6
9 -9 15 -6 6 4 14 1 18 -6 5 -9 9 -9 14 -1 4 6 2 11 -3 11 -15 0 -14 30 2 30
7 0 4 7 -7 15 -11 8 -15 15 -9 15 12 0 32 -22 30 -32 -1 -3 2 -10 7 -15 5 -5
6 5 3 24 -4 20 -2 35 5 39 7 4 13 3 15 -3 2 -5 14 -8 28 -6 15 3 22 10 18 19
-4 10 0 12 13 7 13 -5 16 -3 11 10 -5 13 -1 17 16 17 18 0 19 2 7 10 -13 9
-13 10 0 11 8 1 18 1 23 0 4 0 7 3 7 9 0 5 20 37 44 69 54 74 90 163 106 263
18 109 8 711 -13 783 -46 164 -175 294 -342 345 -46 14 -1263 22 -1375 8z
m1394 -198 c64 -33 130 -107 156 -177 20 -54 21 -71 18 -417 l-3 -361 -28 -60
c-32 -68 -94 -137 -152 -168 -36 -20 -58 -22 -220 -25 -113 -2 -185 -8 -193
-15 -10 -7 -12 -23 -8 -48 8 -47 -35 -215 -72 -283 -39 -71 -112 -143 -179
-174 -47 -21 -76 -27 -153 -30 -52 -1 -101 1 -108 6 -10 7 3 25 53 72 42 41
76 86 96 126 27 55 31 75 38 190 4 71 6 134 4 141 -4 9 -87 13 -321 15 l-317
3 -58 29 c-68 35 -140 108 -170 174 -21 45 -22 62 -25 401 -3 303 -1 361 13
405 31 97 108 178 202 212 31 11 163 13 708 11 l670 -2 49 -25z m-1121 -1413
c-3 -4 -6 -7 -7 -5 -1 2 -8 12 -16 22 -14 18 -14 18 7 6 12 -8 19 -18 16 -23z
m30 16 c-3 -7 -6 -13 -8 -13 -2 0 -5 6 -8 13 -3 8 1 14 8 14 7 0 11 -6 8 -14z
m907 -108 c0 -7 -30 -13 -34 -7 -3 4 4 9 15 9 10 1 19 0 19 -2z m-121 -125 c0
-10 -3 -8 -9 5 -12 27 -12 43 0 25 5 -8 9 -22 9 -30z"/>
<path d="M8088 8155 c2 -19 -1 -36 -8 -40 -7 -5 -269 -8 -581 -9 l-568 -1 -18
24 c-10 13 -17 28 -16 33 7 20 -15 6 -25 -17 -19 -41 -14 -81 12 -112 l24 -28
573 -3 c602 -3 614 -2 644 42 28 40 15 114 -23 135 -16 8 -17 5 -14 -24z
m-1193 -73 c-8 -8 -25 10 -25 26 0 13 2 13 14 -4 8 -10 13 -21 11 -22z"/>
<path d="M8082 7735 c0 -21 -4 -41 -9 -46 -4 -4 -262 -10 -571 -11 -527 -3
-564 -2 -576 15 -7 9 -21 17 -30 17 -14 0 -15 4 -5 23 10 20 10 21 -5 6 -9 -8
-19 -32 -23 -52 -5 -31 -1 -40 25 -67 l30 -30 539 -1 c636 -2 618 -2 642 10
48 26 51 128 5 158 -21 14 -22 13 -22 -22z"/>
<path d="M4427 8514 c-3 -4 8 -23 26 -44 25 -30 35 -36 49 -29 11 6 19 5 24
-3 4 -6 3 -8 -2 -5 -16 9 -35 -8 -28 -26 3 -9 10 -14 15 -11 6 3 8 -111 6
-299 -4 -276 -7 -308 -25 -348 -23 -52 -60 -88 -122 -121 l-45 -23 -588 1
c-324 1 -591 4 -593 7 -3 3 2 17 12 32 15 23 18 55 20 206 1 98 -2 181 -6 184
-5 3 -7 13 -4 23 5 14 3 14 -10 -2 -15 -19 -16 -18 -16 19 0 35 1 37 14 20 12
-16 13 -10 15 51 0 42 -2 64 -8 55 -5 -7 -6 -22 -3 -34 3 -11 1 -18 -4 -14 -6
3 -16 2 -24 -4 -13 -7 -12 -9 3 -9 9 0 17 -4 17 -10 0 -21 -34 -5 -42 20 -3 8
-6 -7 -6 -34 -1 -50 22 -96 45 -89 7 3 11 -10 11 -34 0 -28 -2 -33 -8 -18 -4
11 -6 23 -3 28 2 4 0 7 -6 7 -5 0 -16 7 -24 14 -13 13 -15 12 -14 -9 0 -14 3
-22 8 -19 5 3 9 -4 9 -16 0 -12 -4 -18 -10 -15 -6 4 -10 -11 -10 -37 -1 -88
-11 -194 -20 -224 -12 -36 -53 -76 -96 -93 -23 -9 -143 -11 -465 -9 -480 3
-452 0 -537 71 -36 30 -72 36 -72 11 0 -9 -5 -12 -12 -8 -7 4 -8 3 -4 -5 4 -6
12 -8 18 -5 7 5 9 1 5 -9 -9 -23 69 -90 139 -118 l59 -24 1064 -3 c672 -2
1088 1 1129 7 81 13 139 41 192 94 88 88 105 169 95 436 -3 97 -6 203 -6 236
1 76 -13 136 -36 153 -10 7 -17 15 -16 17 7 14 -11 33 -24 28 -10 -4 -14 -2
-10 4 4 6 -1 17 -10 24 -15 12 -16 12 -10 -5 6 -16 5 -17 -8 -6 -9 7 -15 9
-14 4 4 -21 -2 -26 -16 -14 -8 7 -12 16 -9 21 6 10 0 12 -9 3z m-1300 -419
c-5 -37 -17 -42 -14 -6 1 17 6 31 10 31 4 0 6 -11 4 -25z m30 -161 c-3 -3 -12
-4 -19 -1 -8 3 -5 6 6 6 11 1 17 -2 13 -5z m-1211 -292 c-11 -10 -15 4 -8 28
l7 25 3 -23 c2 -13 1 -26 -2 -30z"/>
<path d="M5187 8450 c-52 -10 -88 -38 -114 -90 -20 -38 -23 -60 -23 -157 l0
-113 460 0 460 0 0 123 c-1 116 -2 124 -28 162 -15 23 -47 50 -72 63 -43 21
-52 22 -345 21 -165 -1 -317 -5 -338 -9z m115 -127 c27 -24 23 -69 -7 -89 -21
-14 -30 -14 -55 -4 -38 16 -48 51 -26 85 19 29 60 33 88 8z m316 1 c44 -31 20
-104 -35 -104 -37 0 -63 27 -63 66 0 51 51 71 98 38z"/>
<path d="M2518 8379 c-24 -13 -23 -56 1 -69 11 -5 33 -10 50 -10 l31 0 0 -200
0 -200 -30 0 c-17 0 -39 -9 -50 -20 -25 -25 -21 -36 -110 233 -76 227 -89 249
-130 227 -19 -10 -28 -36 -139 -394 -32 -102 -33 -129 -4 -140 27 -11 48 20
78 114 l29 91 60 -3 60 -3 27 -89 c15 -49 34 -93 41 -97 22 -14 55 -10 62 8 6
15 7 15 19 -1 11 -14 29 -16 137 -14 l125 3 3 30 c4 36 -18 55 -65 55 l-33 0
0 199 0 198 40 7 c51 8 70 41 38 69 -16 14 -39 17 -122 17 -55 0 -109 -5 -118
-11z m-194 -266 c7 -20 4 -23 -23 -23 -36 0 -35 -3 -19 58 l12 47 12 -30 c6
-17 15 -40 18 -52z"/>
<path d="M3101 8294 c0 -11 3 -14 6 -6 3 7 2 16 -1 19 -3 4 -6 -2 -5 -13z"/>
<path d="M3406 8248 c-22 -32 -20 -61 7 -87 l24 -22 421 3 c408 3 422 4 436
23 21 28 20 61 -4 85 -19 19 -33 20 -444 20 l-425 0 -15 -22z"/>
<path d="M3160 8239 c0 -5 5 -7 10 -4 6 3 10 8 10 11 0 2 -4 4 -10 4 -5 0 -10
-5 -10 -11z"/>
<path d="M3110 8216 c0 -2 7 -9 15 -16 13 -11 14 -10 9 4 -5 14 -24 23 -24 12z"/>
<path d="M3125 8170 c-3 -5 -2 -10 4 -10 5 0 13 5 16 10 3 6 2 10 -4 10 -5 0
-13 -4 -16 -10z"/>
<path d="M3455 7952 c-62 -7 -87 -70 -45 -112 19 -19 33 -20 443 -20 398 0
425 1 440 18 22 24 22 75 -1 95 -15 14 -67 16 -412 19 -217 2 -408 1 -425 0z"/>
<path d="M1715 7285 c-32 -31 -32 -69 0 -101 l25 -24 604 2 c599 3 606 3 626
24 30 29 30 82 0 106 -21 17 -55 18 -627 18 l-604 0 -24 -25z"/>
<path d="M4348 7215 c-184 -35 -342 -131 -447 -273 -50 -67 -52 -69 -114 -80
-74 -14 -204 -76 -267 -129 -115 -96 -189 -213 -210 -334 -12 -67 -12 -67 -56
-84 -102 -39 -209 -146 -274 -275 -44 -87 -60 -150 -60 -243 0 -76 0 -78 -44
-131 -59 -72 -103 -170 -112 -244 l-7 -61 -63 -30 c-145 -68 -240 -216 -259
-402 l-6 -56 -50 -6 c-69 -8 -136 -41 -188 -90 -47 -46 -91 -126 -91 -168 0
-22 -11 -33 -57 -61 -73 -43 -137 -121 -160 -196 -27 -85 -24 -251 4 -314 39
-86 122 -167 186 -183 22 -6 27 -13 27 -39 1 -114 142 -244 284 -261 l51 -7
-2 -76 c-3 -149 15 -384 35 -447 47 -144 107 -239 221 -348 64 -61 100 -86
180 -124 55 -26 100 -54 101 -62 0 -15 126 -142 138 -139 16 3 112 -41 112
-52 0 -3 16 -12 35 -20 19 -8 35 -18 35 -23 0 -5 14 -7 33 -3 23 4 28 3 17 -4
-13 -8 -12 -10 3 -10 10 0 15 -5 12 -10 -4 -6 -3 -10 2 -9 13 3 63 -13 63 -20
0 -4 9 -7 20 -8 11 -1 18 2 15 8 -9 14 2 11 19 -7 11 -10 16 -11 16 -3 0 8 7
5 20 -6 11 -10 20 -14 20 -10 0 4 9 0 19 -9 21 -19 35 -9 20 14 -6 11 -9 12
-9 2 0 -7 -4 -10 -10 -7 -5 3 -10 10 -10 15 0 10 81 6 99 -4 6 -4 15 -4 21 -1
5 3 18 2 27 -4 17 -9 17 -10 0 -16 -10 -4 -28 0 -42 9 -15 10 -25 12 -25 6 0
-6 -6 -8 -12 -4 -7 4 -10 3 -5 -1 8 -9 27 -13 85 -19 25 -3 32 -1 28 10 -3 8
1 14 8 14 9 0 12 7 9 20 -5 19 -6 20 -19 3 -12 -16 -13 -16 -14 -1 0 9 6 19
13 21 9 4 8 8 -3 16 -13 9 -13 11 3 11 9 0 17 -7 17 -15 0 -8 5 -15 11 -15 5
0 7 5 3 12 -4 7 -3 8 5 4 8 -6 9 -12 2 -20 -6 -7 -8 -16 -4 -20 4 -4 15 3 25
16 14 18 17 19 12 4 -5 -12 -1 -22 11 -28 14 -9 15 -12 4 -20 -11 -8 -10 -8 4
-4 10 3 30 -2 44 -11 25 -17 25 -17 19 5 -6 17 -4 21 8 16 9 -3 16 -13 16 -22
0 -26 10 -7 15 28 5 39 12 47 26 33 7 -7 8 -17 3 -25 -5 -7 -10 -23 -11 -34
-3 -19 2 -22 32 -22 19 0 36 4 36 9 1 5 2 13 3 18 0 5 5 13 10 18 5 5 6 3 2
-4 -4 -8 -2 -13 6 -14 27 -3 34 -4 55 -16 29 -17 76 -14 61 4 -6 8 -7 17 -3
21 4 4 10 1 12 -6 3 -6 10 -9 15 -6 6 4 17 -1 25 -11 9 -14 13 -15 13 -4 0 24
-16 40 -33 33 -9 -3 -17 -2 -17 4 0 12 -38 23 -45 12 -3 -5 1 -11 7 -13 10 -4
10 -6 1 -6 -7 -1 -13 -8 -13 -17 0 -8 -5 -12 -10 -9 -6 3 -8 18 -4 33 5 25 4
25 -9 10 -8 -10 -18 -18 -22 -18 -5 0 0 9 9 19 11 12 25 17 34 14 13 -5 14 -3
6 6 -13 15 -87 4 -78 -11 3 -5 -3 -4 -15 4 -12 7 -17 14 -11 16 6 2 8 7 5 12
-2 4 17 6 43 3 44 -4 46 -3 28 11 -11 9 -15 16 -8 16 6 0 18 -9 26 -21 8 -12
19 -18 25 -15 6 4 16 -2 23 -14 16 -26 28 -26 23 0 -2 12 0 18 6 14 6 -3 8 -8
5 -11 -5 -6 48 -63 59 -63 4 0 0 11 -9 25 -20 30 -20 32 -1 32 8 0 12 -3 10
-7 -2 -3 5 -19 16 -36 10 -16 19 -23 19 -15 0 11 4 9 16 -5 8 -10 12 -13 8 -5
-5 11 -2 13 13 9 18 -5 19 -3 9 18 -6 14 -17 22 -25 19 -9 -4 -11 0 -7 11 3 8
6 18 6 20 0 2 5 4 11 4 5 0 7 -5 3 -11 -4 -7 -1 -10 7 -7 8 3 14 11 14 18 0 7
6 15 13 18 6 2 12 -1 12 -7 0 -17 -4 -26 -12 -24 -3 1 -9 -5 -12 -13 -4 -12
-2 -15 9 -10 8 3 15 1 15 -4 0 -6 -5 -10 -11 -10 -5 0 -7 -5 -3 -11 5 -8 9 -7
15 4 6 9 17 13 29 10 11 -3 20 0 20 6 0 6 -7 11 -15 11 -11 0 -15 9 -13 33 1
19 7 34 14 34 7 0 11 -4 9 -8 -3 -4 2 -9 10 -13 9 -3 15 0 15 10 0 8 5 12 10
9 8 -5 8 -11 0 -20 -8 -9 -6 -14 5 -19 8 -3 15 0 15 6 0 7 6 3 14 -7 8 -11 12
-25 9 -31 -3 -8 2 -11 16 -7 11 3 29 2 38 -2 10 -5 21 -7 26 -7 4 1 7 -6 7
-16 1 -16 1 -16 11 1 8 13 4 22 -18 43 -22 20 -24 23 -6 15 12 -6 30 -11 41
-11 13 0 18 -7 18 -21 -1 -12 4 -24 11 -26 7 -3 9 3 6 16 -6 24 4 26 31 6 10
-7 15 -18 11 -24 -3 -6 -2 -11 4 -11 17 0 24 22 10 32 -11 8 -10 9 3 4 10 -3
24 2 33 10 19 20 19 35 0 28 -8 -4 -12 -10 -9 -15 3 -5 -5 -9 -18 -9 -22 0
-22 1 6 19 16 11 34 17 41 15 13 -5 16 -34 4 -34 -5 0 -6 -7 -3 -15 5 -11 1
-14 -12 -9 -11 3 -8 -1 6 -10 14 -8 19 -15 13 -16 -25 0 -13 -15 12 -15 14 0
25 3 25 8 0 4 -4 7 -10 7 -6 0 -5 10 2 25 6 13 15 22 19 19 5 -3 9 0 9 5 0 6
5 11 11 11 5 0 8 -4 5 -9 -3 -5 1 -12 10 -15 23 -9 44 -7 44 3 0 5 -10 7 -22
5 -13 -2 -16 -1 -8 2 22 10 31 27 17 36 -19 12 -30 9 -24 -6 4 -10 1 -13 -9
-9 -11 4 -12 9 -3 19 12 14 61 16 53 2 -7 -11 10 -10 24 2 6 6 10 8 8 4 -7 -9
34 -45 44 -39 5 3 12 0 16 -6 4 -8 3 -9 -4 -5 -7 4 -12 2 -12 -3 0 -6 5 -11
11 -11 5 0 7 -6 3 -13 -5 -8 -2 -7 9 2 10 8 20 11 23 8 9 -9 -22 -37 -31 -29
-5 4 -5 2 -1 -5 7 -13 36 -7 36 8 0 5 11 9 25 9 14 0 24 5 22 11 -1 6 4 14 11
16 6 3 12 -2 12 -10 0 -9 -6 -18 -12 -20 -10 -4 -9 -8 2 -16 12 -9 16 -4 20
22 6 33 -4 49 -25 40 -9 -3 -11 4 -7 24 5 25 3 26 -11 15 -13 -11 -15 -10 -10
7 4 17 8 18 24 8 10 -6 19 -19 19 -28 0 -9 7 -19 15 -22 9 -4 13 -16 10 -37
-3 -29 7 -40 20 -20 3 6 2 10 -3 10 -6 0 -8 9 -5 20 3 11 0 26 -6 34 -10 12
-8 13 10 9 17 -5 20 -3 14 8 -5 8 -4 11 1 6 9 -8 10 -12 13 -39 1 -7 8 -5 19
5 17 15 18 15 19 -6 2 -17 0 -19 -7 -7 -9 14 -14 7 -11 -15 1 -5 -8 1 -19 14
l-20 23 0 -26 c0 -14 5 -26 11 -26 5 0 8 -4 5 -8 -2 -4 9 -9 25 -10 19 -2 29
2 29 12 0 9 9 12 29 10 22 -3 31 1 34 14 3 12 5 11 6 -5 0 -13 -3 -23 -9 -23
-5 0 -10 -5 -10 -10 0 -6 8 -5 20 2 11 7 20 18 20 25 0 7 7 10 15 7 8 -4 15
-12 15 -19 0 -8 5 -17 10 -20 7 -4 9 2 5 18 -4 15 -2 28 5 32 9 5 10 1 6 -13
-5 -15 -1 -21 19 -24 17 -4 25 -1 25 8 0 8 5 14 12 14 6 0 3 9 -7 20 -10 11
-13 20 -8 20 19 0 32 -26 27 -51 -5 -23 -5 -23 13 3 22 35 28 35 30 1 1 -18
-2 -22 -7 -12 -5 7 -12 10 -16 6 -11 -11 0 -18 37 -22 19 -3 29 -1 23 3 -6 4
-13 14 -16 23 -5 13 -2 16 13 12 10 -3 16 -10 12 -16 -4 -7 0 -8 11 -4 10 4
26 7 37 7 10 0 19 5 19 11 0 6 -6 9 -13 6 -7 -3 -13 3 -13 13 0 11 6 16 14 12
11 -4 13 1 7 19 -4 13 -4 20 1 16 4 -4 9 -20 10 -35 1 -15 2 -35 3 -45 1 -24
21 -11 21 14 0 10 5 19 10 19 13 0 13 -6 0 -31 -8 -14 -7 -19 2 -20 7 -1 20
-2 28 -3 8 -1 21 3 28 8 7 5 12 4 12 -3 0 -6 5 -11 12 -11 6 0 3 10 -8 22 -10
12 -14 18 -7 15 7 -4 13 0 15 10 3 15 7 14 28 -8 30 -32 49 -39 75 -29 11 4
31 3 44 -2 15 -5 28 -5 36 2 7 6 24 8 37 5 13 -3 65 -7 115 -9 77 -2 94 0 106
15 9 9 13 20 10 23 -4 3 -1 6 5 6 6 0 13 -4 16 -9 3 -5 14 -8 24 -7 9 2 2 -2
-15 -7 -18 -6 -33 -14 -33 -17 0 -10 103 -1 114 11 6 5 15 9 20 9 6 0 4 -5 -4
-10 -18 -11 -15 -12 67 -14 44 -1 53 2 53 17 0 13 -5 16 -24 11 -33 -8 -40 9
-16 37 12 15 19 18 18 9 -2 -8 -7 -18 -13 -22 -5 -4 -6 -10 -2 -14 3 -4 13 -1
21 5 13 11 17 7 25 -21 7 -26 9 -28 10 -10 1 13 -4 33 -9 45 -10 22 -10 22 6
-1 9 -12 24 -22 33 -22 14 -1 14 -2 -1 -11 -10 -5 -18 -15 -18 -22 0 -7 4 -6
10 3 8 13 10 13 10 1 0 -11 4 -9 14 5 8 10 18 16 22 11 4 -4 1 -7 -7 -7 -11 0
-11 -2 1 -10 19 -12 33 -13 25 -1 -3 6 3 15 14 21 16 8 19 8 15 -3 -3 -8 3
-17 13 -21 10 -4 19 -2 21 3 2 6 9 8 15 4 17 -11 67 -12 67 -2 0 5 5 9 11 9 5
0 7 -4 4 -10 -3 -6 -1 -10 4 -10 6 0 11 10 11 23 0 17 2 19 9 7 6 -8 8 -17 6
-20 -2 -3 23 -5 56 -5 62 0 72 6 39 21 -19 9 -19 9 1 34 16 20 18 21 10 4 -14
-30 0 -40 16 -12 l14 23 -7 -24 c-4 -17 -3 -21 6 -16 7 4 13 -1 17 -14 4 -17
10 -19 37 -14 17 3 34 10 37 16 4 6 8 5 10 -1 5 -13 199 -21 199 -9 0 4 -4 6
-9 2 -5 -3 -12 -1 -15 4 -3 5 3 11 14 14 11 3 18 0 17 -6 -1 -6 15 -14 36 -17
34 -6 37 -5 31 13 -5 17 -4 18 9 6 8 -8 13 -17 10 -21 -2 -4 3 -5 12 -2 20 8
14 40 -6 36 -8 -2 -10 0 -6 4 10 10 37 14 36 6 -4 -30 3 -42 26 -42 19 0 23 4
18 17 -4 10 -11 21 -17 25 -17 12 7 9 24 -2 8 -5 11 -10 7 -10 -4 0 -3 -9 3
-20 13 -24 40 -27 40 -4 0 8 5 12 10 9 6 -4 8 -11 5 -16 -3 -5 1 -6 10 -2 13
4 14 8 4 14 -10 6 -10 12 4 27 9 10 14 22 10 26 -4 4 1 4 11 0 12 -5 14 -9 6
-14 -7 -4 -1 -7 14 -7 21 0 24 2 15 13 -7 9 -8 14 -1 14 6 0 12 -5 14 -11 2
-5 11 -7 21 -3 12 4 16 12 12 23 -5 13 -4 14 7 3 11 -11 10 -16 -6 -27 -10 -8
-24 -16 -30 -18 -6 -2 -7 -8 -3 -13 4 -5 11 -3 15 3 10 15 61 35 73 27 15 -9
10 8 -8 28 -20 23 -14 29 31 32 25 2 36 -1 36 -10 0 -8 7 -14 15 -14 8 0 15 5
15 10 0 6 -5 10 -11 10 -5 0 -7 5 -4 10 4 6 12 5 21 -5 12 -12 19 -12 34 -3
10 7 17 16 14 20 -3 4 2 5 12 1 14 -5 13 -8 -7 -25 -22 -18 -22 -19 -2 -9 12
6 25 16 28 21 4 6 15 8 26 5 15 -5 23 2 38 37 11 24 20 37 20 31 1 -7 8 -13
16 -13 8 0 15 -4 15 -10 0 -5 -6 -7 -14 -4 -8 3 -17 0 -21 -6 -3 -6 -3 -10 2
-9 24 4 34 -4 13 -11 -22 -7 -23 -8 -4 -9 22 -1 49 21 38 31 -3 3 2 5 12 5 19
-2 28 29 12 40 -7 4 -9 -2 -6 -15 4 -12 2 -20 -3 -16 -18 11 -10 43 10 41 11
0 17 -5 15 -9 -3 -4 0 -8 6 -8 6 0 8 -5 4 -12 -4 -7 -3 -8 5 -4 6 4 9 11 6 16
-3 4 5 11 18 14 22 6 22 6 2 22 -20 16 -20 16 3 9 13 -4 22 -2 22 4 0 6 -8 11
-17 12 -14 0 -12 3 5 10 13 5 21 13 18 18 -3 5 1 11 9 15 9 3 15 0 15 -9 0 -8
-4 -15 -10 -15 -5 0 -10 -9 -10 -20 0 -17 4 -15 35 13 19 17 35 38 35 45 0 7
5 10 11 7 6 -4 13 2 16 14 3 11 9 19 13 16 4 -3 20 5 35 17 25 19 26 22 10 28
-16 6 -17 7 0 23 14 15 15 20 3 35 -12 15 -11 16 4 4 14 -12 21 -11 42 5 25
18 30 29 27 68 -1 18 -1 18 9 3 6 -10 18 -15 28 -12 11 4 8 -2 -8 -15 -14 -11
-21 -21 -16 -21 5 0 3 -7 -4 -15 -7 -8 -15 -13 -19 -11 -3 1 -19 -10 -35 -26
-22 -21 -25 -28 -12 -28 9 0 16 5 16 10 0 6 6 10 13 10 7 0 19 8 27 18 18 21
54 75 55 82 0 3 6 15 13 28 7 12 9 22 5 22 -4 0 -2 5 4 11 5 5 8 21 5 35 -4
21 -7 23 -20 12 -14 -11 -13 -9 1 11 13 20 14 28 4 40 -10 14 -10 14 5 3 28
-22 35 -7 37 74 1 45 -2 73 -8 70 -10 -6 -25 23 -16 32 3 3 5 0 5 -6 0 -7 4
-12 9 -12 5 0 9 55 10 122 0 67 5 126 10 131 5 5 38 9 75 9 37 1 69 5 72 9 2
4 11 6 18 3 7 -3 20 2 29 10 8 8 17 12 21 9 3 -3 8 2 12 11 3 9 9 14 14 11 4
-2 17 6 29 19 20 21 20 24 5 37 -15 12 -16 11 -11 -11 4 -14 4 -19 1 -12 -7
16 -22 15 -26 -1 -2 -11 -8 -11 -33 0 l-30 14 27 -4 c20 -3 32 2 45 19 15 20
18 21 28 7 9 -11 14 -13 19 -5 4 7 1 12 -6 13 -7 0 -3 4 10 9 28 12 29 51 2
68 -19 12 -22 35 -7 60 12 18 27 15 27 -5 0 -14 -2 -15 -9 -4 -5 8 -11 9 -15
3 -5 -8 14 -22 30 -22 9 0 3 37 -8 48 -9 9 -9 12 0 12 8 0 12 18 12 53 0 31
-4 47 -9 39 -4 -7 -6 -24 -3 -38 3 -19 1 -23 -11 -18 -9 3 -14 11 -12 17 3 7
10 26 16 42 17 44 20 65 9 65 -6 0 -10 5 -10 11 0 5 5 7 10 4 6 -4 10 12 10
42 -1 47 -1 47 -15 23 -8 -14 -14 -19 -15 -12 0 7 -5 10 -11 7 -6 -4 -8 -14
-4 -22 4 -13 3 -14 -10 -3 -16 13 -21 35 -6 25 5 -3 12 -1 16 5 4 6 11 8 16 5
5 -4 9 1 9 9 0 8 -8 20 -17 26 -16 10 -16 10 2 8 11 -2 23 -7 27 -13 5 -6 8
-3 8 7 0 9 -4 19 -10 23 -5 3 -7 12 -3 20 6 18 -8 19 -27 2 -8 -6 -6 -2 4 10
20 25 14 43 -15 43 -10 0 -19 4 -19 10 0 5 7 7 15 4 21 -8 19 9 -3 29 -14 13
-21 14 -30 5 -8 -8 -12 -9 -12 -1 0 6 6 14 13 17 8 3 7 9 -7 20 -10 8 -23 13
-29 9 -6 -3 -7 -1 -4 4 4 6 -2 18 -13 28 -16 15 -22 15 -35 5 -10 -8 -15 -9
-15 -1 0 6 5 11 11 11 5 0 7 5 4 10 -3 6 -17 10 -29 10 -23 0 -23 2 -22 98 1
114 -18 187 -67 258 l-33 48 133 130 c81 80 139 147 150 171 16 36 18 81 21
420 2 238 7 384 13 392 6 6 18 9 26 6 10 -4 14 -2 10 3 -7 13 49 47 63 39 6
-4 8 -11 5 -16 -4 -5 -2 -9 3 -9 18 0 21 13 7 27 -13 13 -11 19 12 51 16 20
31 39 34 42 3 3 12 22 18 42 7 21 17 41 23 44 7 5 8 2 3 -6 -5 -9 -4 -11 4 -6
7 5 9 12 3 19 -23 31 0 79 29 61 16 -10 10 8 -8 21 -12 9 -17 31 -19 86 -4 84
5 110 30 90 13 -11 16 -11 16 0 0 8 -14 22 -30 31 -26 15 -30 23 -30 60 0 90
-60 148 -151 148 l-46 0 -5 133 c-5 140 -15 178 -63 242 -64 83 -201 110 -303
59 -108 -54 -132 -115 -132 -343 l0 -167 -31 -23 c-57 -42 -71 -93 -67 -249 4
-166 18 -203 118 -303 52 -53 77 -70 123 -85 l57 -18 0 -340 0 -341 -89 -95
c-49 -52 -91 -93 -93 -90 -2 3 -15 21 -30 40 -39 53 -121 97 -208 112 l-75 13
-2 65 c-3 80 -41 187 -88 252 -45 62 -124 123 -186 145 -48 17 -49 19 -49 59
0 92 -51 202 -129 278 -40 39 -40 39 -34 100 16 181 -102 402 -272 512 -29 18
-64 36 -77 39 -21 5 -26 15 -36 68 -41 222 -270 444 -489 473 -49 6 -54 9 -88
61 -170 256 -519 365 -832 261 -52 -17 -122 -49 -156 -71 -70 -45 -188 -156
-218 -204 -11 -18 -24 -33 -28 -33 -3 0 -29 30 -56 66 -91 120 -242 221 -390
260 -86 22 -244 27 -337 9z m286 -180 c107 -28 166 -63 257 -154 114 -114 139
-166 150 -316 9 -116 11 -415 2 -415 -3 0 -33 16 -66 34 -72 40 -161 66 -229
66 -116 0 -238 -50 -308 -126 -33 -36 -40 -51 -40 -84 0 -46 27 -80 64 -80 13
0 46 18 72 40 123 102 300 92 415 -23 81 -82 99 -157 99 -423 l0 -181 -127 -6
c-165 -9 -863 -9 -970 0 -97 7 -97 7 -52 99 37 75 118 156 184 184 101 43 228
34 306 -22 55 -40 106 -47 136 -19 52 49 33 112 -50 168 -77 52 -149 74 -241
74 -156 -1 -259 -45 -381 -166 -81 -80 -130 -165 -149 -258 l-13 -62 -376 -3
-377 -2 0 42 c1 62 44 135 102 175 26 17 52 33 57 35 5 2 2 36 -7 78 -25 124
6 253 85 357 25 32 131 119 137 112 2 -2 32 -55 66 -117 56 -101 89 -142 112
-142 4 0 31 21 60 46 75 67 125 87 207 82 55 -3 76 -9 117 -36 63 -40 95 -41
124 -4 32 39 22 98 -21 134 -109 91 -263 107 -398 41 -53 -25 -54 -25 -68 -7
-26 36 -46 125 -40 181 13 125 116 261 246 325 53 27 78 33 153 36 l89 4 31
61 c63 127 204 237 344 271 79 19 226 20 298 1z m1281 0 c106 -28 163 -60 239
-137 41 -42 86 -100 104 -135 l33 -63 78 0 c70 0 86 -4 149 -36 93 -46 180
-133 224 -222 29 -58 33 -76 33 -147 0 -45 -6 -94 -14 -112 -7 -18 -14 -33
-15 -33 -1 0 -31 11 -67 26 -87 34 -178 41 -255 19 -65 -18 -146 -66 -169 -98
-23 -33 -19 -84 10 -112 31 -32 40 -31 95 5 59 39 132 54 195 40 61 -14 74
-21 135 -75 53 -47 88 -56 112 -31 7 8 40 62 73 120 33 58 64 106 68 106 23 0
140 -129 167 -184 51 -104 60 -225 24 -351 -4 -17 2 -23 33 -34 21 -8 49 -22
64 -32 30 -21 81 -112 77 -137 -1 -9 1 -23 5 -29 13 -21 -92 -17 -117 5 -16
13 -18 14 -8 1 11 -14 7 -17 -25 -21 -21 -2 -163 -5 -315 -7 l-277 -3 -6 29
c-37 164 -120 289 -251 374 -96 62 -155 81 -269 86 -85 4 -110 2 -164 -17 -70
-23 -141 -67 -166 -102 -20 -29 -19 -92 1 -112 32 -32 62 -30 122 7 72 44 137
61 208 54 145 -15 297 -142 338 -283 7 -21 4 -22 -126 -29 -73 -3 -338 -5
-588 -3 l-455 3 -3 145 c-6 289 22 409 110 485 116 98 270 99 380 0 71 -64
138 -38 138 54 0 47 -3 52 -47 90 -103 89 -226 124 -351 102 -66 -12 -160 -51
-209 -87 l-23 -16 0 208 c0 249 9 316 55 411 61 124 212 243 351 277 80 19
226 20 299 1z m2475 -422 c16 -9 33 -27 39 -40 7 -15 11 -115 11 -273 0 -236
1 -251 20 -270 26 -26 59 -33 125 -28 l55 5 0 -51 c0 -77 -18 -127 -59 -166
-72 -69 -188 -80 -290 -29 -75 38 -112 86 -119 159 l-5 50 76 0 c67 0 79 3
108 27 86 72 78 208 -15 253 -23 11 -48 20 -54 20 -9 0 -12 39 -12 140 0 152
10 193 53 210 31 12 36 12 67 -7z m-110 -492 c0 -13 -26 -21 -65 -21 -33 0
-51 11 -38 24 10 9 103 7 103 -3z m179 -836 c-1 -148 -5 -299 -9 -335 l-7 -65
-3 80 c-3 72 -4 76 -10 35 l-7 -45 -3 45 c-3 42 -4 41 -10 -20 -4 -36 -7 79
-8 255 l-2 320 30 0 30 0 -1 -270z m-1013 -100 c53 -9 116 -59 154 -121 l35
-58 3 -921 c2 -646 -1 -936 -9 -973 -16 -81 -84 -204 -153 -279 -75 -82 -158
-137 -251 -166 l-70 -22 -2025 0 -2025 0 -66 23 c-156 54 -302 180 -377 328
-55 109 -55 92 -54 1081 l1 912 26 55 c31 65 88 118 149 137 37 12 401 14
2337 12 1262 -2 2308 -5 2325 -8z m964 -309 c0 -2 -7 -7 -16 -10 -8 -3 -12 -2
-9 4 6 10 25 14 25 6z m8 -26 c-22 -30 -35 -41 -22 -17 9 16 36 47 41 47 2 0
-6 -13 -19 -30z m-48 3 c0 -9 -3 -13 -7 -10 -3 4 -13 1 -22 -5 -10 -8 -9 -4 3
10 23 26 26 27 26 5z m-72 -73 c-7 -10 -14 -17 -17 -15 -4 4 18 35 25 35 2 0
-1 -9 -8 -20z m82 17 c0 -2 -10 -12 -22 -23 l-23 -19 19 23 c18 21 26 27 26
19z m-126 -60 c-2 -7 -14 -19 -27 -26 -21 -13 -21 -12 2 13 27 29 33 32 25 13z
m10 -58 c-41 -41 -77 -69 -83 -65 -16 10 -14 53 3 59 10 4 12 0 9 -14 -4 -13
0 -19 11 -19 9 0 16 5 16 11 0 5 -4 8 -9 5 -5 -4 -7 3 -4 13 6 22 33 37 42 22
3 -5 11 -3 18 4 10 11 10 15 0 18 -7 3 -2 6 9 6 12 1 27 8 34 16 7 8 15 15 19
15 3 0 -26 -32 -65 -71z m-5826 -471 c1 -269 -2 -488 -6 -488 -34 0 -113 35
-137 60 l-30 31 -3 387 c-2 353 -1 390 15 422 25 48 78 82 123 78 l35 -3 3
-487z m5498 467 c14 -9 35 -37 46 -63 20 -44 20 -60 16 -406 -5 -392 -9 -416
-62 -451 -15 -10 -46 -20 -70 -22 l-43 -5 -6 477 c-3 263 -4 483 0 488 8 14
89 2 119 -18z m-5828 -460 c-2 -111 -7 -174 -13 -172 -5 2 -23 23 -40 46 -27
38 -30 50 -29 114 0 48 6 84 18 107 17 33 54 80 63 80 3 0 3 -79 1 -175z
m6091 96 c42 -83 32 -199 -23 -266 l-25 -30 -1 179 c0 161 2 177 16 165 8 -7
24 -29 33 -48z m206 -261 c3 -5 2 -10 -4 -10 -5 0 -13 5 -16 10 -3 6 -2 10 4
10 5 0 13 -4 16 -10z m95 -80 c0 -5 -2 -10 -4 -10 -3 0 -8 5 -11 10 -3 6 -1
10 4 10 6 0 11 -4 11 -10z m35 -69 c3 -5 2 -12 -3 -15 -5 -3 -9 1 -9 9 0 17 3
19 12 6z m25 -14 c0 -7 -9 -18 -21 -25 -21 -13 -21 -13 -3 12 22 29 24 31 24
13z m-20 -247 c0 -5 -5 -10 -11 -10 -5 0 -7 5 -4 10 3 6 8 10 11 10 2 0 4 -4
4 -10z m-2 -85 c-3 -3 -9 2 -12 12 -6 14 -5 15 5 6 7 -7 10 -15 7 -18z m52 -6
c0 -6 -4 -7 -10 -4 -5 3 -10 11 -10 16 0 6 5 7 10 4 6 -3 10 -11 10 -16z m-45
-29 c-3 -5 -12 -10 -18 -10 -7 0 -6 4 3 10 19 12 23 12 15 0z m15 -36 c0 -9
-5 -12 -11 -8 -8 5 -10 -1 -7 -17 4 -21 1 -24 -28 -25 -30 -1 -32 1 -22 20 14
28 23 35 15 13 -5 -13 -3 -17 5 -15 7 3 13 11 13 19 0 11 13 23 33 28 1 1 2
-6 2 -15z m-56 -75 c-4 -7 -44 0 -44 7 0 2 11 3 24 2 14 -1 23 -5 20 -9z m91
-8 c-3 -6 -11 -11 -16 -11 -5 0 -4 6 3 14 14 16 24 13 13 -3z m-45 2 c0 -3 -6
-11 -14 -19 -13 -12 -15 -12 -13 4 1 15 27 29 27 15z m-130 -58 c0 -9 -6 -12
-16 -8 -13 5 -13 7 -2 14 17 11 18 11 18 -6z m36 -24 c-4 -5 -2 -11 3 -13 5
-1 3 -9 -5 -16 -12 -11 -13 -9 -10 10 6 30 5 28 12 28 3 0 3 -4 0 -9z m-90
-36 c12 -12 12 -15 2 -15 -10 0 -9 -3 2 -10 9 -6 10 -10 3 -10 -7 0 -17 9 -23
19 -18 34 -10 42 16 16z m-152 -271 c5 -14 4 -15 -9 -4 -17 14 -19 20 -6 20 5
0 12 -7 15 -16z m50 -90 c3 -8 2 -12 -4 -9 -6 3 -10 10 -10 16 0 14 7 11 14
-7z m-44 2 c0 -3 -4 -8 -10 -11 -5 -3 -10 -1 -10 4 0 6 5 11 10 11 6 0 10 -2
10 -4z m23 -43 c-7 -2 -21 -2 -30 0 -10 3 -4 5 12 5 17 0 24 -2 18 -5z m-58
-43 c3 -6 -1 -7 -9 -4 -18 7 -21 14 -7 14 6 0 13 -4 16 -10z m21 -53 c4 -3 -6
-5 -20 -3 -14 1 -29 5 -32 9 -3 3 6 4 20 3 15 -2 29 -6 32 -9z m-126 -37 c0
-5 -2 -10 -4 -10 -3 0 -8 5 -11 10 -3 6 -1 10 4 10 6 0 11 -4 11 -10z m140
-11 c0 -14 -17 -10 -23 5 -4 10 -1 13 9 9 7 -3 14 -9 14 -14z m-30 -13 c0 -2
-7 -7 -16 -10 -8 -3 -12 -2 -9 4 6 10 25 14 25 6z m18 -42 c-3 -16 -4 -15 -18
1 -9 11 -10 16 -2 11 8 -5 12 -1 13 11 0 10 3 13 6 6 2 -7 3 -20 1 -29z m-54
-39 c-4 -8 -11 -15 -16 -15 -6 0 -5 6 2 15 7 8 14 15 16 15 2 0 1 -7 -2 -15z
m-29 -35 c3 -5 1 -10 -4 -10 -6 0 -11 5 -11 10 0 6 2 10 4 10 3 0 8 -4 11 -10z
m-74 -28 c-7 -2 -18 1 -23 6 -8 8 -4 9 13 5 13 -4 18 -8 10 -11z m31 -9 c-6
-2 -10 -8 -7 -12 2 -5 -6 -13 -19 -19 -20 -9 -25 -8 -30 5 -4 9 -4 18 -1 21 3
3 5 0 5 -6 0 -17 27 -15 34 3 3 8 11 15 18 14 10 0 10 -2 0 -6z m-97 -43 c-10
-17 5 -31 23 -22 9 5 28 5 42 1 l25 -8 -25 2 c-14 1 -31 -2 -38 -7 -17 -10
-47 17 -38 33 4 6 9 11 12 11 3 0 2 -4 -1 -10z m15 -94 c0 -2 -7 -6 -15 -10
-8 -3 -15 -1 -15 4 0 6 7 10 15 10 8 0 15 -2 15 -4z m-183 -21 c0 -8 -4 -12
-9 -9 -5 3 -6 10 -3 15 9 13 12 11 12 -6z m-87 -29 c0 -2 -8 -10 -17 -17 -16
-13 -17 -12 -4 4 13 16 21 21 21 13z m90 -26 c-6 -11 -15 -20 -20 -20 -6 0 -2
9 7 20 10 11 19 20 21 20 1 0 -2 -9 -8 -20z m55 10 c-3 -5 -12 -10 -18 -10 -7
0 -6 4 3 10 19 12 23 12 15 0z m-4200 -50 c3 -6 -1 -7 -9 -4 -18 7 -21 14 -7
14 6 0 13 -4 16 -10z m395 0 c0 -5 -4 -10 -10 -10 -5 0 -10 5 -10 10 0 6 5 10
10 10 6 0 10 -4 10 -10z m104 -6 c10 -25 -1 -29 -14 -5 -6 12 -7 21 -1 21 5 0
12 -7 15 -16z m41 6 c-3 -5 -12 -10 -18 -10 -7 0 -6 4 3 10 19 12 23 12 15 0z
m55 0 c0 -5 -4 -10 -10 -10 -5 0 -10 5 -10 10 0 6 5 10 10 10 6 0 10 -4 10
-10z m88 -4 c-7 -8 -15 -12 -17 -11 -5 6 10 25 20 25 5 0 4 -6 -3 -14z m62 10
c0 -2 -9 -6 -20 -9 -11 -3 -20 -1 -20 4 0 5 9 9 20 9 11 0 20 -2 20 -4z m129
-18 c-16 -32 -16 -32 -16 -3 0 15 5 25 14 25 11 0 11 -4 2 -22z m51 -1 c0 -8
-3 -7 -9 2 -7 11 -11 10 -20 -5 -6 -11 -11 -14 -11 -8 0 14 22 34 32 28 4 -3
8 -11 8 -17z m53 -24 c-6 -16 -4 -16 17 2 13 11 20 14 16 7 -5 -8 0 -22 11
-35 18 -22 18 -22 -3 -4 -22 19 -39 23 -29 7 3 -6 -1 -7 -10 -4 -10 4 -15 14
-12 25 3 11 1 22 -4 25 -5 3 -9 10 -9 15 0 6 7 4 15 -5 9 -8 12 -22 8 -33z
m57 31 c0 -14 -3 -14 -15 -4 -8 7 -15 14 -15 16 0 2 7 4 15 4 8 0 15 -7 15
-16z m2980 -4 c0 -5 -5 -10 -11 -10 -5 0 -7 5 -4 10 3 6 8 10 11 10 2 0 4 -4
4 -10z m-3187 -13 c7 3 10 4 7 0 -3 -3 -8 -5 -12 -4 -3 1 -18 -11 -32 -26 -14
-15 -26 -23 -26 -18 0 14 44 58 48 48 2 -4 9 -4 15 0z m272 3 c3 -6 -1 -7 -9
-4 -18 7 -21 14 -7 14 6 0 13 -4 16 -10z m2881 -2 c4 -7 3 -8 -4 -4 -20 12
-33 -3 -21 -25 9 -18 8 -19 -10 -7 -19 11 -19 14 -4 30 19 21 29 23 39 6z
m-2790 -9 c3 -6 1 -16 -6 -22 -10 -9 -11 -9 -5 2 4 8 2 17 -6 22 -9 6 -10 9
-2 9 6 0 15 -5 19 -11z m2864 -4 c9 -10 9 -15 1 -15 -6 0 -11 6 -12 13 0 9 -2
9 -6 -1 -2 -6 -9 -10 -14 -6 -10 6 -3 24 10 24 5 0 14 -7 21 -15z m-3589 -18
c-10 -9 -11 -8 -5 6 3 10 9 15 12 12 3 -3 0 -11 -7 -18z m606 1 c-3 -8 -6 -5
-6 6 -1 11 2 17 5 13 3 -3 4 -12 1 -19z m333 -6 c0 -8 -1 -13 -3 -11 -1 2 -9
12 -16 22 -12 15 -12 17 3 11 9 -3 16 -13 16 -22z m845 10 c-3 -3 -11 0 -18 7
-9 10 -8 11 6 5 10 -3 15 -9 12 -12z m-1295 -2 c0 -5 -2 -10 -4 -10 -3 0 -8 5
-11 10 -3 6 -1 10 4 10 6 0 11 -4 11 -10z m-796 -27 c-8 -9 -18 -12 -22 -8 -4
4 -1 10 6 12 6 3 10 9 7 14 -4 5 1 6 9 3 14 -5 14 -8 0 -21z m666 17 c0 -5 -7
-10 -16 -10 -8 0 -12 5 -9 10 3 6 10 10 16 10 5 0 9 -4 9 -10z m324 2 c3 -5
-8 -6 -25 -4 -16 2 -29 6 -29 8 0 8 49 4 54 -4z m146 4 c0 -3 -4 -8 -10 -11
-5 -3 -10 -1 -10 4 0 6 5 11 10 11 6 0 10 -2 10 -4z m-1516 -27 c-6 -11 -24
-2 -24 11 0 5 7 7 15 4 8 -4 12 -10 9 -15z m661 11 c3 -6 -1 -7 -9 -4 -18 7
-21 14 -7 14 6 0 13 -4 16 -10z m448 -10 c-5 -19 -23 -29 -23 -12 0 7 20 32
26 32 1 0 0 -9 -3 -20z m367 10 c0 -5 -5 -10 -11 -10 -5 0 -7 5 -4 10 3 6 8
10 11 10 2 0 4 -4 4 -10z m70 -11 c0 -6 -4 -7 -10 -4 -5 3 -10 11 -10 16 0 6
5 7 10 4 6 -3 10 -11 10 -16z m195 3 c-3 -3 -11 0 -18 7 -9 10 -8 11 6 5 10
-3 15 -9 12 -12z m675 -3 c0 -5 -4 -9 -8 -9 -5 0 -9 7 -9 15 0 8 4 12 9 9 4
-3 8 -9 8 -15z m370 17 c0 -2 -7 -7 -16 -10 -8 -3 -12 -2 -9 4 6 10 25 14 25
6z m-2805 -44 c-6 -8 -35 12 -35 24 0 11 4 10 18 -3 10 -10 18 -19 17 -21z
m158 11 c-4 -11 1 -9 16 6 27 27 45 23 48 -10 l3 -24 -10 23 c-11 25 -23 31
-13 5 4 -11 3 -14 -6 -9 -6 4 -18 3 -25 -3 -10 -8 -17 -7 -26 4 -10 12 -16 13
-26 4 -10 -8 -14 -8 -14 0 0 10 13 15 33 12 4 0 7 4 7 10 0 5 4 8 10 4 5 -3 6
-13 3 -22z m582 17 c4 -6 10 -8 14 -5 5 2 24 6 43 9 25 3 35 0 35 -10 0 -8 -4
-14 -8 -14 -5 0 -4 -10 0 -22 5 -13 14 -22 20 -20 6 1 11 -2 11 -8 0 -15 -45
-5 -46 11 -3 46 -4 47 -33 45 -16 -1 -37 4 -47 11 -10 7 -13 13 -7 13 7 0 15
-5 18 -10z m336 -19 c-26 -26 -28 -26 -41 -1 -7 14 -7 20 0 20 5 0 10 -8 10
-17 0 -14 4 -13 21 6 12 12 23 20 26 17 2 -2 -5 -14 -16 -25z m110 15 c-8 -9
-8 -16 -2 -20 5 -4 14 1 19 11 9 15 12 15 27 3 22 -18 1 -31 -44 -25 -44 6
-50 13 -27 31 25 18 42 18 27 0z m136 -8 c-3 -8 -6 -5 -6 6 -1 11 2 17 5 13 3
-3 4 -12 1 -19z m503 7 c0 -2 -9 -3 -19 -2 -11 0 -18 5 -15 9 4 6 34 0 34 -7z
m574 -6 c5 -4 -2 -6 -17 -6 -19 2 -23 5 -15 15 6 7 14 9 17 5 3 -4 10 -11 15
-14z m63 14 c-11 -11 14 -32 31 -26 13 4 14 3 3 -5 -8 -6 -10 -16 -6 -23 4 -8
-4 0 -19 16 -28 33 -32 45 -14 45 6 0 8 -3 5 -7z m291 -11 c2 -7 -3 -12 -10
-12 -8 0 -15 7 -15 15 0 18 19 15 25 -3z m156 2 c3 -8 2 -12 -4 -9 -6 3 -10
10 -10 16 0 14 7 11 14 -7z m67 -11 c-12 -20 -14 -14 -5 12 4 9 9 14 11 11 3
-2 0 -13 -6 -23z m966 5 c-3 -8 -6 -5 -6 6 -1 11 2 17 5 13 3 -3 4 -12 1 -19z
m-3501 -6 c-3 -3 -1 -11 5 -19 7 -7 7 -13 2 -13 -5 0 -15 11 -21 25 -9 20 -9
23 4 18 8 -3 12 -8 10 -11z m100 3 c-3 -9 1 -18 9 -21 8 -4 12 -10 9 -15 -3
-5 -10 -7 -15 -3 -6 3 -7 -4 -3 -20 7 -28 -4 -34 -24 -14 -15 15 -16 31 0 22
6 -4 8 -3 4 4 -7 11 9 62 20 62 3 0 3 -7 0 -15z m1624 -1 c0 -2 -9 -4 -20 -4
-11 0 -20 4 -20 9 0 5 9 7 20 4 11 -3 20 -7 20 -9z m107 -16 c-3 -7 -5 -2 -5
12 0 14 2 19 5 13 2 -7 2 -19 0 -25z m828 23 c3 -5 2 -12 -3 -15 -5 -3 -9 1
-9 9 0 17 3 19 12 6z m92 -9 c-10 -10 -17 -24 -17 -31 0 -7 -4 -9 -10 -6 -5 3
-10 13 -10 21 0 8 4 13 9 10 5 -3 14 1 21 9 7 8 15 15 18 15 3 0 -2 -8 -11
-18z m-2950 -14 c-3 -8 -6 -5 -6 6 -1 11 2 17 5 13 3 -3 4 -12 1 -19z m1113 1
c0 -5 -4 -9 -10 -9 -5 0 -10 7 -10 16 0 8 5 12 10 9 6 -3 10 -10 10 -16z m197
-9 c2 -28 -14 -25 -19 4 -3 15 -1 23 6 20 7 -3 12 -13 13 -24z m431 7 c2 -9
-1 -17 -7 -17 -6 0 -7 7 -4 17 4 11 3 14 -5 9 -7 -4 -12 -2 -12 4 0 18 25 6
28 -13z m612 17 c0 -8 -19 -13 -24 -6 -3 5 1 9 9 9 8 0 15 -2 15 -3z m1260 -4
c0 -5 -5 -10 -11 -10 -5 0 -7 5 -4 10 3 6 8 10 11 10 2 0 4 -4 4 -10z m160 0
c0 -5 -5 -10 -11 -10 -5 0 -7 5 -4 10 3 6 8 10 11 10 2 0 4 -4 4 -10z m-1450
-26 c0 -8 5 -12 10 -9 6 3 13 0 16 -9 3 -8 12 -17 20 -20 9 -3 12 -1 9 4 -3 6
-1 10 4 10 6 0 11 -5 11 -11 0 -5 5 -7 10 -4 6 3 10 1 10 -6 0 -8 -13 -10 -40
-6 -22 3 -40 1 -40 -4 0 -4 -7 -6 -15 -3 -9 4 -13 15 -11 30 3 13 0 24 -6 24
-5 0 -8 -6 -5 -13 10 -26 -9 -40 -42 -32 -34 7 -43 25 -12 22 11 0 17 -5 15
-9 -3 -4 2 -8 11 -8 9 0 15 6 13 13 -3 18 22 58 33 52 5 -4 9 -13 9 -21z m158
1 c13 5 14 3 5 -6 -14 -14 -33 -3 -32 19 1 15 2 14 6 -1 3 -12 10 -16 21 -12z
m302 17 c0 -5 -7 -9 -15 -9 -8 0 -12 4 -9 9 3 4 9 8 15 8 5 0 9 -4 9 -8z m377
-17 c-15 -16 -19 -13 -11 9 3 9 10 13 15 10 5 -3 3 -11 -4 -19z m513 0 c-7 -8
-17 -15 -23 -15 -6 0 -2 8 9 19 22 21 33 19 14 -4z m-3520 4 c0 -6 5 -7 10 -4
6 3 10 0 10 -9 0 -13 -4 -13 -30 0 -36 18 -36 19 -10 21 11 1 20 -3 20 -8z
m926 -26 c-11 -11 -17 4 -9 23 7 18 8 18 11 1 2 -10 1 -21 -2 -24z m261 15
c-3 -8 -6 -5 -6 6 -1 11 2 17 5 13 3 -3 4 -12 1 -19z m216 -3 c-7 -21 -12 -19
-10 4 0 11 5 18 9 15 4 -3 5 -11 1 -19z m272 15 c3 -5 -1 -10 -9 -10 -9 0 -16
5 -16 10 0 6 4 10 9 10 6 0 13 -4 16 -10z m185 6 c0 -3 -4 -8 -10 -11 -5 -3
-10 -1 -10 4 0 6 5 11 10 11 6 0 10 -2 10 -4z m53 -17 c-8 -8 -13 -7 -18 2 -5
8 -4 10 3 5 7 -4 12 -2 12 5 0 7 3 9 7 6 4 -4 2 -12 -4 -18z m52 -8 c-6 -5
-25 10 -25 20 0 5 6 4 14 -3 8 -7 12 -15 11 -17z m781 20 c-3 -4 3 -16 14 -26
11 -10 20 -23 20 -28 0 -6 -3 -7 -7 -4 -3 4 -11 2 -18 -3 -8 -7 -22 -1 -44 19
-26 24 -29 29 -12 24 12 -3 21 -9 21 -13 0 -4 9 -10 20 -13 24 -6 26 2 3 18
-14 10 -12 35 3 35 3 0 3 -4 0 -9z m-2045 -18 c13 -16 12 -17 -3 -4 -10 7 -18
15 -18 17 0 8 8 3 21 -13z m746 11 c-3 -3 -12 -4 -19 -1 -8 3 -5 6 6 6 11 1
17 -2 13 -5z m613 -9 c0 -9 -10 -15 -26 -15 -14 0 -23 -4 -19 -10 3 -5 0 -10
-7 -10 -8 0 -14 10 -15 23 0 12 1 17 3 11 5 -13 54 -6 54 7 0 5 2 9 5 9 3 0 5
-7 5 -15z m356 -3 c1 -7 0 -8 -3 -2 -8 16 -26 12 -19 -5 3 -8 2 -15 -3 -15
-14 0 -20 11 -14 26 7 18 35 15 39 -4z m54 3 c-14 -17 -30 -20 -30 -4 0 5 4 8
9 4 5 -3 12 -1 16 5 3 5 9 10 12 10 3 0 0 -7 -7 -15z m770 1 c0 -8 -4 -17 -8
-20 -4 -2 -8 4 -8 15 0 10 4 19 8 19 4 0 8 -6 8 -14z m-1875 -6 c3 -5 1 -10
-4 -10 -6 0 -11 5 -11 10 0 6 2 10 4 10 3 0 8 -4 11 -10z m534 -24 c-3 -3 -11
5 -18 17 -13 21 -12 21 5 5 10 -10 16 -20 13 -22z m371 24 c0 -5 -4 -10 -9
-10 -6 0 -13 5 -16 10 -3 6 1 10 9 10 9 0 16 -4 16 -10z m1211 -18 c5 -13 4
-24 -3 -28 -7 -4 -8 -3 -4 4 4 7 2 12 -4 12 -6 0 -8 5 -4 11 3 6 0 16 -7 21
-12 8 -12 9 0 6 8 -2 18 -14 22 -26z m-1804 12 c-3 -3 -12 -4 -19 -1 -8 3 -5
6 6 6 11 1 17 -2 13 -5z m136 -14 c-3 -12 -8 -19 -11 -16 -5 6 5 36 12 36 2 0
2 -9 -1 -20z m837 10 c0 -5 -7 -10 -16 -10 -8 0 -12 5 -9 10 3 6 10 10 16 10
5 0 9 -4 9 -10z m548 -15 c-3 -3 -9 2 -12 12 -6 14 -5 15 5 6 7 -7 10 -15 7
-18z m-1218 -3 c3 -3 -7 -3 -22 0 -19 4 -28 0 -31 -11 -3 -10 -5 -8 -6 7 -1
20 2 22 27 16 15 -4 29 -9 32 -12z m884 3 c3 -9 0 -15 -9 -15 -8 0 -15 7 -15
15 0 8 4 15 9 15 5 0 11 -7 15 -15z m186 -2 c0 -18 -27 -16 -33 1 -4 10 0 14
14 13 10 -1 19 -7 19 -14z m280 13 c0 -2 -8 -10 -17 -17 -16 -13 -17 -12 -4 4
13 16 21 21 21 13z m-1995 -16 c-3 -5 -12 -10 -18 -10 -7 0 -6 4 3 10 19 12
23 12 15 0z m455 6 c0 -3 -4 -8 -10 -11 -5 -3 -10 -1 -10 4 0 6 5 11 10 11 6
0 10 -2 10 -4z m685 -6 c3 -5 -1 -10 -10 -10 -9 0 -13 5 -10 10 3 6 8 10 10
10 2 0 7 -4 10 -10z m665 0 c0 -5 -4 -10 -10 -10 -5 0 -10 5 -10 10 0 6 5 10
10 10 6 0 10 -4 10 -10z m290 0 c0 -5 -4 -10 -10 -10 -5 0 -10 5 -10 10 0 6 5
10 10 10 6 0 10 -4 10 -10z m-720 -4 c0 -3 -4 -8 -10 -11 -5 -3 -10 -1 -10 4
0 6 5 11 10 11 6 0 10 -2 10 -4z"/>
<path d="M4085 6606 c-76 -20 -117 -40 -149 -75 -39 -41 -40 -85 -2 -118 34
-29 56 -29 109 -1 35 19 58 23 137 23 110 0 144 -14 231 -91 47 -41 56 -46 88
-40 63 10 88 65 57 124 -67 128 -311 220 -471 178z"/>
<path d="M5981 6610 c-150 -32 -305 -165 -285 -245 7 -30 49 -65 77 -65 11 0
41 20 67 44 80 75 120 91 230 91 86 0 100 -3 150 -29 93 -49 150 -30 150 49 0
37 -5 48 -39 78 -21 19 -64 44 -96 56 -66 25 -188 35 -254 21z"/>
<path d="M7187 5535 c3 -8 9 -12 14 -9 12 7 11 11 -5 17 -10 4 -13 1 -9 -8z"/>
<path d="M7150 5505 c0 -7 30 -13 34 -7 3 4 -4 9 -15 9 -10 1 -19 0 -19 -2z"/>
<path d="M7244 5490 c0 -11 3 -20 7 -20 10 0 19 27 12 34 -12 11 -19 6 -19
-14z"/>
<path d="M7175 5461 c-3 -5 -2 -12 3 -15 5 -3 9 1 9 9 0 17 -3 19 -12 6z"/>
<path d="M7258 5444 c6 -3 10 -10 6 -15 -3 -5 -2 -9 3 -9 10 0 40 19 33 21
-32 5 -52 7 -42 3z"/>
<path d="M7156 5413 c-4 -9 -3 -20 1 -24 4 -4 9 3 9 17 2 28 -1 31 -10 7z"/>
<path d="M7200 5412 c0 -15 39 -22 47 -9 3 7 3 9 -2 5 -4 -4 -16 -3 -26 3 -11
5 -19 6 -19 1z"/>
<path d="M7265 5399 c-4 -6 -5 -12 -2 -15 2 -3 7 2 10 11 7 17 1 20 -8 4z"/>
<path d="M8412 5160 c0 -19 2 -27 5 -17 2 9 2 25 0 35 -3 9 -5 1 -5 -18z"/>
<path d="M8432 5160 c0 -19 2 -27 5 -17 2 9 2 25 0 35 -3 9 -5 1 -5 -18z"/>
<path d="M8412 5080 c0 -19 2 -27 5 -17 2 9 2 25 0 35 -3 9 -5 1 -5 -18z"/>
<path d="M3791 4665 c-220 -62 -381 -270 -381 -490 1 -234 151 -430 376 -490
226 -60 462 52 570 269 34 70 38 85 42 181 4 92 2 114 -22 189 -49 159 -157
277 -297 326 -84 28 -215 35 -288 15z m-9 -202 c23 -21 27 -46 12 -81 -26 -64
-134 -49 -134 19 0 76 67 110 122 62z m337 -120 c100 -75 95 -222 -9 -276
-100 -52 -230 30 -230 143 0 59 50 129 110 153 27 12 102 0 129 -20z m-307
-240 c34 -31 13 -93 -33 -93 -23 0 -59 34 -59 57 0 23 30 53 53 53 11 0 29 -7
39 -17z m-109 -104 c28 -15 37 -28 37 -56 0 -50 -66 -72 -94 -31 -22 32 -20
64 6 82 27 19 24 19 51 5z"/>
<path d="M6280 4657 c-172 -58 -299 -196 -345 -373 -41 -159 13 -335 144 -464
172 -169 420 -198 616 -70 87 57 140 116 183 208 33 70 37 87 40 178 3 69 -1
119 -11 160 -47 180 -200 335 -368 373 -76 18 -187 13 -259 -12z m14 -188 c31
-24 36 -77 9 -102 -63 -56 -149 -6 -122 71 17 51 70 65 113 31z m323 -110 c42
-15 92 -69 103 -109 19 -72 -34 -166 -107 -191 -99 -32 -203 48 -203 156 0
104 110 181 207 144z m-273 -255 c39 -39 -1 -106 -52 -88 -21 7 -28 17 -30 42
-2 18 2 40 9 48 15 19 54 18 73 -2z m-98 -121 c43 -57 -25 -124 -78 -76 -20
18 -24 63 -6 81 18 18 69 15 84 -5z"/>
<path d="M4800 3837 c-77 -39 -80 -218 -5 -373 14 -28 50 -75 80 -103 169
-160 429 -158 591 4 138 138 181 415 73 470 -38 20 -700 22 -739 2z m518 -323
c44 -31 20 -103 -44 -130 -43 -18 -155 -18 -198 0 -35 14 -76 59 -76 83 0 8
11 25 25 38 23 24 30 25 147 25 96 0 129 -4 146 -16z"/>
<path d="M8220 4670 c0 -5 5 -10 11 -10 5 0 7 5 4 10 -3 6 -8 10 -11 10 -2 0
-4 -4 -4 -10z"/>
<path d="M6005 2170 c-3 -5 -1 -10 4 -10 6 0 11 5 11 10 0 6 -2 10 -4 10 -3 0
-8 -4 -11 -10z"/>
<path d="M8300 7063 c0 -7 -4 -13 -10 -13 -5 0 -10 -7 -10 -16 0 -13 2 -13 13
-2 32 34 37 45 22 45 -8 0 -15 -6 -15 -14z"/>
<path d="M6970 7052 c0 -12 19 -26 26 -19 2 2 -2 10 -11 17 -9 8 -15 8 -15 2z"/>
<path d="M7220 7045 c0 -8 2 -15 4 -15 2 0 6 7 10 15 3 8 1 15 -4 15 -6 0 -10
-7 -10 -15z"/>
<path d="M7260 7050 c0 -5 5 -10 10 -10 6 0 10 5 10 10 0 6 -4 10 -10 10 -5 0
-10 -4 -10 -10z"/>
<path d="M7018 7033 c7 -3 16 -2 19 1 4 3 -2 6 -13 5 -11 0 -14 -3 -6 -6z"/>
<path d="M7086 6988 c3 -5 10 -6 15 -3 13 9 11 12 -6 12 -8 0 -12 -4 -9 -9z"/>
<path d="M7130 6991 c0 -6 4 -13 10 -16 6 -3 7 1 4 9 -7 18 -14 21 -14 7z"/>
<path d="M7955 6880 c-7 -12 2 -30 16 -30 12 0 12 27 0 35 -5 3 -12 1 -16 -5z"/>
<path d="M7960 6829 c0 -5 5 -7 10 -4 6 3 10 8 10 11 0 2 -4 4 -10 4 -5 0 -10
-5 -10 -11z"/>
<path d="M1710 6778 c-27 -29 -21 -84 11 -110 20 -17 66 -18 645 -18 611 0
624 0 644 20 12 12 20 33 20 55 0 22 -8 43 -20 55 -20 20 -33 20 -650 20
l-629 0 -21 -22z"/>
<path d="M7891 6744 c0 -11 3 -14 6 -6 3 7 2 16 -1 19 -3 4 -6 -2 -5 -13z"/>
<path d="M7810 6689 c0 -13 28 -18 33 -6 3 7 -3 13 -14 13 -11 0 -19 -3 -19
-7z"/>
<path d="M7785 6659 c-10 -15 3 -25 16 -12 7 7 7 13 1 17 -6 3 -14 1 -17 -5z"/>
<path d="M8983 6645 c0 -8 4 -12 9 -9 5 3 6 10 3 15 -9 13 -12 11 -12 -6z"/>
<path d="M7690 6589 c0 -5 5 -7 10 -4 6 3 10 8 10 11 0 2 -4 4 -10 4 -5 0 -10
-5 -10 -11z"/>
<path d="M7590 6539 c0 -5 -5 -7 -11 -3 -7 4 -9 -1 -7 -12 2 -11 11 -18 21
-16 22 4 22 -14 0 -27 -10 -6 -13 -11 -7 -11 6 0 21 12 35 26 22 24 22 26 4
22 -14 -2 -19 2 -17 15 2 9 -2 17 -8 17 -5 0 -10 -5 -10 -11z"/>
<path d="M7461 6494 c0 -11 3 -14 6 -6 3 7 2 16 -1 19 -3 4 -6 -2 -5 -13z"/>
<path d="M7533 6495 c0 -11 4 -12 14 -4 7 6 13 13 13 15 0 2 -6 4 -13 4 -8 0
-14 -7 -14 -15z"/>
<path d="M1715 6305 c-16 -15 -25 -36 -25 -55 0 -19 9 -40 25 -55 l24 -25 460
0 460 0 20 26 c35 45 26 95 -20 119 -23 13 -102 15 -474 15 l-446 0 -24 -25z"/>
<path d="M8883 6088 c-1 -12 -7 -26 -12 -31 -7 -7 -5 -15 7 -24 16 -14 16 -14
-1 -9 -11 3 -16 2 -12 -4 10 -16 30 -12 50 10 10 11 13 20 7 20 -6 0 -12 -5
-14 -12 -5 -13 -28 -2 -28 13 0 6 4 8 8 5 4 -2 7 6 7 20 -2 31 -10 40 -12 12z"/>
<path d="M8837 6070 c-3 -11 -1 -20 4 -20 5 0 9 9 9 20 0 11 -2 20 -4 20 -2 0
-6 -9 -9 -20z"/>
<path d="M8917 6010 c-10 -11 -21 -19 -25 -16 -4 2 -8 -4 -8 -14 0 -11 2 -17
5 -14 2 2 15 -3 28 -11 20 -13 23 -13 23 -1 0 8 -6 17 -12 19 -10 4 -10 8 0
15 8 5 12 17 10 26 -3 15 -5 14 -21 -4z"/>
<path d="M8837 6013 c9 -3 11 -14 6 -31 -6 -26 -6 -26 11 -9 15 14 16 20 6 32
-7 8 -18 15 -24 14 -7 0 -6 -2 1 -6z"/>
<path d="M8874 5910 c0 -26 4 -40 12 -40 8 0 11 9 9 21 -3 12 0 29 5 38 8 14
9 14 10 -1 0 -10 7 -18 15 -18 12 0 12 3 -2 20 -29 33 -48 25 -49 -20z"/>
<path d="M1758 5923 c-33 -5 -68 -47 -68 -80 0 -13 11 -34 23 -47 24 -24 25
-24 368 -31 189 -4 393 -6 452 -4 100 4 110 6 128 28 24 30 24 82 0 112 l-18
23 -429 2 c-236 1 -441 0 -456 -3z"/>
<path d="M8834 5871 c4 -5 0 -11 -6 -14 -7 -2 -9 -8 -5 -13 4 -5 12 -2 17 6
13 20 12 30 -1 30 -5 0 -8 -4 -5 -9z"/>
<path d="M8856 5837 c3 -10 9 -15 12 -12 3 3 0 11 -7 18 -10 9 -11 8 -5 -6z"/>
<path d="M8917 5799 c7 -7 15 -10 18 -7 3 3 -2 9 -12 12 -14 6 -15 5 -6 -5z"/>
<path d="M8820 5788 c0 -4 4 -8 9 -8 6 0 12 4 15 8 3 5 -1 9 -9 9 -8 0 -15 -4
-15 -9z"/>
<path d="M8805 5754 c9 -9 18 -14 21 -11 9 9 -6 27 -22 27 -13 0 -13 -2 1 -16z"/>
<path d="M8765 5719 c-3 -3 3 -9 13 -11 11 -3 19 0 19 7 0 13 -25 16 -32 4z"/>
<path d="M8735 5673 c-15 -12 -16 -14 -3 -10 9 3 19 1 22 -6 2 -7 5 -2 5 11 1
26 2 26 -24 5z"/>
<path d="M8761 5603 c7 -12 15 -20 18 -17 3 2 -3 12 -13 22 -17 16 -18 16 -5
-5z"/>
<path d="M8696 5602 c-2 -4 -1 -14 5 -22 7 -12 9 -10 9 8 0 23 -5 28 -14 14z"/>
<path d="M8631 5581 c-10 -6 -10 -10 -1 -16 10 -6 10 -9 0 -15 -9 -5 -9 -9 -1
-14 6 -4 11 -4 12 1 0 4 2 18 3 31 2 12 2 22 2 22 -1 0 -7 -4 -15 -9z"/>
<path d="M1712 5327 c-30 -32 -28 -72 4 -102 l27 -25 238 0 c226 0 240 1 259
20 12 12 20 33 20 55 0 22 -8 43 -20 55 -19 19 -33 20 -263 20 -242 0 -244 0
-265 -23z"/>
<path d="M9090 5260 c-9 -6 -10 -10 -3 -10 6 0 15 5 18 10 8 12 4 12 -15 0z"/>
<path d="M8980 4960 c0 -5 5 -10 11 -10 5 0 7 5 4 10 -3 6 -8 10 -11 10 -2 0
-4 -4 -4 -10z"/>
<path d="M9055 4830 c3 -5 8 -10 11 -10 2 0 4 5 4 10 0 6 -5 10 -11 10 -5 0
-7 -4 -4 -10z"/>
<path d="M9010 4810 c0 -5 -8 -7 -17 -4 -14 5 -15 4 -4 -4 16 -12 44 -4 35 9
-7 12 -14 11 -14 -1z"/>
<path d="M9017 4718 c5 -19 3 -21 -8 -10 -20 18 -33 15 -14 -5 15 -15 15 -17
1 -25 -9 -5 -16 -14 -16 -19 0 -6 4 -8 9 -5 5 3 14 -1 20 -8 13 -16 -2 -32
-19 -21 -7 4 -10 -19 -8 -64 1 -39 5 -71 10 -71 8 0 12 22 9 48 -1 6 7 12 19
12 15 0 20 6 20 25 0 24 12 31 49 25 13 -1 13 1 1 15 -9 11 -16 13 -24 5 -10
-10 -46 -14 -46 -6 0 15 14 35 21 30 5 -3 6 2 3 11 -5 11 -2 14 12 9 16 -5 16
-4 4 5 -11 8 -18 7 -27 -5 -6 -9 -17 -13 -23 -9 -7 4 -8 10 -4 14 5 3 14 16
21 28 10 17 9 24 -2 33 -11 9 -12 7 -8 -12z m9 -123 c10 -24 0 -34 -20 -20
-10 8 -15 18 -11 24 9 16 25 14 31 -4z"/>
<path d="M9078 4678 c5 -5 16 -8 23 -6 8 3 3 7 -10 11 -17 4 -21 3 -13 -5z"/>
<path d="M9055 4580 c3 -5 19 -8 34 -7 38 3 31 14 -9 15 -17 0 -28 -3 -25 -8z"/>
<path d="M9058 4553 c7 -3 16 -2 19 1 4 3 -2 6 -13 5 -11 0 -14 -3 -6 -6z"/>
<path d="M9094 4553 c10 -11 37 -12 30 -2 -3 5 -12 9 -21 9 -9 0 -13 -3 -9 -7z"/>
<path d="M9028 4526 c-10 -7 -18 -18 -18 -25 0 -6 -6 -14 -13 -17 -8 -3 -14
-19 -14 -37 l-1 -32 14 33 c15 35 29 44 21 12 -5 -18 -3 -19 15 -6 11 8 27 12
36 9 10 -4 13 -2 8 5 -4 7 -16 12 -27 12 -11 0 -19 7 -19 16 0 14 3 14 15 4
12 -10 15 -10 15 0 0 7 6 10 14 7 9 -4 13 0 11 11 -2 9 -4 19 -4 21 -1 3 -7
-4 -15 -15 -8 -10 -18 -15 -22 -11 -5 4 -2 12 6 17 8 6 11 10 5 10 -5 -1 -18
-7 -27 -14z"/>
<path d="M9130 4530 c-9 -6 -10 -10 -3 -10 6 0 15 5 18 10 8 12 4 12 -15 0z"/>
<path d="M9120 4502 c0 -7 -9 -12 -21 -12 -11 0 -17 -4 -14 -10 10 -16 32 -12
39 6 4 9 4 19 1 22 -3 3 -5 0 -5 -6z"/>
<path d="M9108 4455 c-5 -5 -33 -11 -70 -14 -4 -1 -5 -8 -1 -17 4 -12 7 -13
14 -3 4 8 11 10 15 6 4 -3 2 -13 -5 -21 -9 -11 -8 -15 7 -18 13 -4 22 3 31 24
10 23 16 27 22 17 5 -8 9 -9 9 -4 0 15 -16 36 -22 30z"/>
<path d="M9020 4330 c-13 -8 -13 -11 0 -25 14 -13 16 -12 18 10 2 28 2 28 -18
15z"/>
<path d="M8585 3471 c-3 -5 -1 -12 5 -16 5 -3 10 1 10 9 0 18 -6 21 -15 7z"/>
<path d="M8250 2791 c0 -6 5 -13 10 -16 6 -3 10 1 10 9 0 9 -4 16 -10 16 -5 0
-10 -4 -10 -9z"/>
<path d="M7750 2240 c-8 -5 -12 -11 -10 -14 3 -2 14 2 24 10 22 15 10 19 -14
4z"/>
<path d="M4370 2221 c0 -16 17 -31 40 -35 12 -3 30 -18 30 -25 0 -4 -7 -8 -15
-8 -8 0 -15 4 -15 9 0 4 -5 8 -11 8 -6 0 -8 -7 -4 -17 5 -15 4 -16 -6 -5 -7 6
-20 12 -28 11 -11 0 -12 -2 -3 -6 6 -2 10 -8 7 -12 -7 -12 49 -8 57 4 5 6 8 6
8 -2 0 -7 11 -12 24 -11 14 1 22 7 19 12 -4 5 1 7 10 3 10 -3 17 -3 17 2 0 16
-14 21 -27 9 -11 -9 -15 -7 -20 10 -3 12 -11 22 -18 22 -7 0 -15 6 -18 14 -3
8 -15 20 -26 26 -18 9 -21 8 -21 -9z"/>
<path d="M7521 2231 c-7 -5 -9 -11 -5 -14 5 -3 15 1 22 9 14 16 5 18 -17 5z"/>
<path d="M7705 2230 c4 -6 11 -8 16 -5 14 9 11 15 -7 15 -8 0 -12 -5 -9 -10z"/>
<path d="M4110 2210 c0 -5 5 -10 11 -10 5 0 7 5 4 10 -3 6 -8 10 -11 10 -2 0
-4 -4 -4 -10z"/>
<path d="M4896 2183 c9 -21 19 -40 22 -43 4 -3 6 -3 5 -1 -2 2 1 9 7 16 6 7 0
20 -20 39 l-29 27 15 -38z"/>
<path d="M7540 2195 c0 -14 2 -25 4 -25 2 0 13 -3 23 -7 17 -6 17 -6 1 10 -9
10 -15 24 -12 32 4 8 1 15 -5 15 -6 0 -11 -11 -11 -25z"/>
<path d="M7674 2203 c2 -10 6 -17 9 -15 4 1 12 2 18 2 6 0 4 7 -5 15 -19 20
-25 19 -22 -2z"/>
<path d="M3915 2200 c-3 -5 -1 -10 4 -10 6 0 11 5 11 10 0 6 -2 10 -4 10 -3 0
-8 -4 -11 -10z"/>
<path d="M4860 2200 c0 -5 5 -10 11 -10 5 0 7 5 4 10 -3 6 -8 10 -11 10 -2 0
-4 -4 -4 -10z"/>
<path d="M7643 2188 c7 -10 16 -18 21 -18 4 0 3 6 -3 13 -6 8 -9 16 -6 19 3 2
-1 5 -9 5 -11 0 -12 -4 -3 -19z"/>
<path d="M7565 2190 c3 -5 8 -10 11 -10 2 0 4 5 4 10 0 6 -5 10 -11 10 -5 0
-7 -4 -4 -10z"/>
<path d="M3744 2175 c-10 -8 -14 -15 -9 -15 6 0 -1 -7 -15 -15 -14 -8 -20 -14
-13 -15 22 0 43 12 43 26 0 8 4 14 10 14 5 0 6 -7 3 -17 -4 -11 -3 -14 5 -9
13 8 16 46 4 46 -5 0 -17 -7 -28 -15z"/>
<path d="M4870 2169 c0 -8 7 -23 15 -33 15 -19 15 -19 15 1 0 11 -7 26 -15 33
-12 10 -15 10 -15 -1z"/>
<path d="M7597 2159 c7 -7 15 -10 18 -7 3 3 -2 9 -12 12 -14 6 -15 5 -6 -5z"/>
<path d="M4513 2145 c0 -8 4 -15 9 -15 4 0 8 4 8 9 0 6 -4 12 -8 15 -5 3 -9
-1 -9 -9z"/>
<path d="M4846 2144 c-4 -9 -4 -19 -1 -22 2 -3 7 3 11 12 4 9 4 19 1 22 -2 3
-7 -3 -11 -12z"/>
<path d="M5680 2151 c0 -5 5 -13 10 -16 6 -3 10 -2 10 4 0 5 -4 13 -10 16 -5
3 -10 2 -10 -4z"/>
<path d="M3604 2142 c4 -3 14 -7 22 -8 9 -1 13 0 10 4 -4 3 -14 7 -22 8 -9 1
-13 0 -10 -4z"/>
<path d="M3785 2140 c-3 -5 1 -10 9 -10 9 0 16 5 16 10 0 6 -4 10 -9 10 -6 0
-13 -4 -16 -10z"/>
<path d="M7395 2140 c-3 -6 1 -7 9 -4 18 7 21 14 7 14 -6 0 -13 -4 -16 -10z"/>
<path d="M4208 2133 c6 -2 18 -2 25 0 6 3 1 5 -13 5 -14 0 -19 -2 -12 -5z"/>
<path d="M5525 2130 c4 -6 11 -8 16 -5 14 9 11 15 -7 15 -8 0 -12 -5 -9 -10z"/>
<path d="M6790 2130 c0 -5 5 -10 11 -10 5 0 7 5 4 10 -3 6 -8 10 -11 10 -2 0
-4 -4 -4 -10z"/>
<path d="M1470 1957 c0 -14 6 -30 13 -36 10 -8 14 -7 14 4 0 8 -5 11 -10 8 -6
-4 -8 2 -5 15 4 12 2 25 -3 28 -5 3 -9 -6 -9 -19z"/>
<path d="M1646 1933 c-6 -14 -5 -15 5 -6 7 7 10 15 7 18 -3 3 -9 -2 -12 -12z"/>
<path d="M1450 1916 c0 -2 7 -7 16 -10 8 -3 12 -2 9 4 -6 10 -25 14 -25 6z"/>
<path d="M1690 1896 c0 -2 8 -10 18 -17 15 -13 16 -12 3 4 -13 16 -21 21 -21
13z"/>
<path d="M1590 1880 c-9 -6 -10 -10 -3 -10 6 0 15 5 18 10 8 12 4 12 -15 0z"/>
<path d="M1641 1861 c-8 -5 -9 -11 -3 -15 5 -3 12 1 16 9 6 17 6 18 -13 6z"/>
<path d="M1725 1849 c-4 -6 -5 -12 -2 -15 2 -3 7 2 10 11 7 17 1 20 -8 4z"/>
<path d="M1746 1841 c-4 -6 0 -11 8 -11 18 0 21 -16 6 -23 -6 -3 -5 -4 2 -3
25 6 46 -13 44 -38 -2 -15 1 -23 9 -20 6 3 18 -2 25 -11 10 -12 10 -15 -1 -15
-12 0 -12 -2 0 -9 7 -5 11 -14 7 -20 -4 -7 -1 -9 8 -5 11 4 13 0 9 -14 -3 -12
2 -22 13 -26 14 -5 15 -4 4 9 -10 12 -10 19 -2 27 9 9 12 8 12 -3 0 -20 34
-39 51 -28 12 8 12 10 -1 18 -9 7 -17 6 -21 -1 -10 -15 -20 7 -13 26 8 20 20
20 28 0 4 -10 12 -14 22 -10 11 4 18 -1 21 -14 6 -24 20 -27 20 -4 0 9 -12 21
-26 27 -37 16 -150 94 -187 129 -20 19 -34 26 -38 19z m94 -81 c0 -5 -2 -10
-4 -10 -3 0 -8 5 -11 10 -3 6 -1 10 4 10 6 0 11 -4 11 -10z m45 -26 c24 -16
25 -34 2 -34 -8 0 -8 3 1 9 11 6 10 10 -5 16 -10 5 -21 7 -25 7 -5 -1 -8 3 -8
8 0 14 7 13 35 -6z"/>
<path d="M1666 1818 c3 -5 10 -6 15 -3 13 9 11 12 -6 12 -8 0 -12 -4 -9 -9z"/>
<path d="M1730 1755 c0 -8 4 -15 10 -15 5 0 7 7 4 15 -4 8 -8 15 -10 15 -2 0
-4 -7 -4 -15z"/>
<path d="M1695 1730 c21 -24 26 -25 19 -6 -3 8 -13 17 -22 21 -13 5 -13 2 3
-15z"/>
<path d="M1785 1720 c3 -5 8 -10 11 -10 2 0 4 5 4 10 0 6 -5 10 -11 10 -5 0
-7 -4 -4 -10z"/>
<path d="M1716 1688 c3 -5 10 -6 15 -3 13 9 11 12 -6 12 -8 0 -12 -4 -9 -9z"/>
<path d="M1665 1680 c-3 -6 1 -7 9 -4 18 7 21 14 7 14 -6 0 -13 -4 -16 -10z"/>
<path d="M1760 1681 c0 -5 5 -13 10 -16 6 -4 8 -11 5 -16 -3 -5 1 -6 9 -3 9 3
16 2 16 -4 0 -6 -5 -12 -11 -14 -7 -2 -5 -9 5 -17 14 -12 16 -12 10 4 -5 13
-4 16 4 11 21 -13 13 2 -18 34 -16 17 -30 26 -30 21z"/>
<path d="M1946 1634 c-9 -8 -13 -21 -9 -27 5 -8 9 -6 11 6 3 14 7 15 17 7 11
-9 12 -7 8 9 -6 25 -7 25 -27 5z"/>
<path d="M1900 1614 c0 -17 -4 -23 -12 -18 -10 5 -10 4 -2 -5 14 -15 74 -24
74 -11 0 6 -5 10 -11 10 -11 0 -39 25 -39 35 0 3 5 3 12 -1 7 -4 8 -3 4 4 -12
20 -26 13 -26 -14z"/>
<path d="M1833 1618 c-5 -7 -9 -19 -9 -25 1 -16 19 -18 24 -4 2 6 -2 11 -10
11 -10 0 -9 3 2 10 8 5 12 12 9 15 -4 3 -10 0 -16 -7z"/>
<path d="M2510 1580 c0 -5 5 -10 11 -10 5 0 7 5 4 10 -3 6 -8 10 -11 10 -2 0
-4 -4 -4 -10z"/>
<path d="M1872 1540 c0 -14 2 -19 5 -12 2 6 2 18 0 25 -3 6 -5 1 -5 -13z"/>
<path d="M1890 1550 c0 -5 5 -10 10 -10 6 0 10 5 10 10 0 6 -4 10 -10 10 -5 0
-10 -4 -10 -10z"/>
</g>
</svg>
